<?xml version="1.0" encoding="UTF-8" standalone="no"?>
<!DOCTYPE svg PUBLIC "-//W3C//DTD SVG 1.1//EN"
 "http://www.w3.org/Graphics/SVG/1.1/DTD/svg11.dtd">
<!-- Generated by graphviz version 2.47.0 (20210316.0004)
 -->
<!-- Title: dependencies Pages: 1 -->
<svg width="6598pt" height="211pt"
 viewBox="0.00 0.00 6598.00 211.00" xmlns="http://www.w3.org/2000/svg" xmlns:xlink="http://www.w3.org/1999/xlink">
<g id="graph0" class="graph" transform="scale(1 1) rotate(0) translate(4 207)">
<title>dependencies</title>
<polygon fill="white" stroke="transparent" points="-4,4 -4,-207 6594,-207 6594,4 -4,4"/>
<text text-anchor="start" x="3274.01" y="-42.4" font-family="Times-12" font-weight="bold" font-size="14.00">Legend</text>
<polygon fill="#ffffb3" stroke="transparent" points="3061,-10 3061,-30 3081,-30 3081,-10 3061,-10"/>
<text text-anchor="start" x="3084.63" y="-15.4" font-family="Times-12" font-size="14.00"> &#160;Declarations</text>
<polygon fill="#8dd3c7" stroke="transparent" points="3174,-10 3174,-30 3194,-30 3194,-10 3174,-10"/>
<text text-anchor="start" x="3197.73" y="-15.4" font-family="Times-12" font-size="14.00"> &#160;Module</text>
<polygon fill="#80b1d3" stroke="transparent" points="3260,-10 3260,-30 3280,-30 3280,-10 3260,-10"/>
<text text-anchor="start" x="3283.78" y="-15.4" font-family="Times-12" font-size="14.00"> &#160;Bootstrap</text>
<polygon fill="#fdb462" stroke="transparent" points="3357,-10 3357,-30 3377,-30 3377,-10 3357,-10"/>
<text text-anchor="start" x="3380.67" y="-15.4" font-family="Times-12" font-size="14.00"> &#160;Providers</text>
<polygon fill="#fb8072" stroke="transparent" points="3453,-10 3453,-30 3473,-30 3473,-10 3453,-10"/>
<text text-anchor="start" x="3476.73" y="-15.4" font-family="Times-12" font-size="14.00"> &#160;Exports</text>
<g id="clust1" class="cluster">
<title>cluster_MaterialModule</title>
<polygon fill="none" stroke="black" stroke-dasharray="1,5" points="8,-70 8,-195 6582,-195 6582,-70 8,-70"/>
</g>
<g id="clust4" class="cluster">
<title>cluster_MaterialModule_exports</title>
<polygon fill="none" stroke="black" points="16,-135 16,-187 6574,-187 6574,-135 16,-135"/>
</g>
<!-- A11yModule  -->
<g id="node1" class="node">
<title>A11yModule </title>
<polygon fill="#fb8072" stroke="black" points="6566.16,-179 6471.84,-179 6471.84,-143 6566.16,-143 6566.16,-179"/>
<text text-anchor="middle" x="6519" y="-156.8" font-family="Times,serif" font-size="14.00">A11yModule </text>
</g>
<!-- ClipboardModule  -->
<g id="node2" class="node">
<title>ClipboardModule </title>
<polygon fill="#fb8072" stroke="black" points="6453.54,-179 6334.46,-179 6334.46,-143 6453.54,-143 6453.54,-179"/>
<text text-anchor="middle" x="6394" y="-156.8" font-family="Times,serif" font-size="14.00">ClipboardModule </text>
</g>
<!-- CdkStepperModule  -->
<g id="node3" class="node">
<title>CdkStepperModule </title>
<polygon fill="#fb8072" stroke="black" points="6316.65,-179 6187.35,-179 6187.35,-143 6316.65,-143 6316.65,-179"/>
<text text-anchor="middle" x="6252" y="-156.8" font-family="Times,serif" font-size="14.00">CdkStepperModule </text>
</g>
<!-- CdkTableModule  -->
<g id="node4" class="node">
<title>CdkTableModule </title>
<polygon fill="#fb8072" stroke="black" points="6169.26,-179 6050.74,-179 6050.74,-143 6169.26,-143 6169.26,-179"/>
<text text-anchor="middle" x="6110" y="-156.8" font-family="Times,serif" font-size="14.00">CdkTableModule </text>
</g>
<!-- CdkTreeModule  -->
<g id="node5" class="node">
<title>CdkTreeModule </title>
<polygon fill="#fb8072" stroke="black" points="6033.03,-179 5920.97,-179 5920.97,-143 6033.03,-143 6033.03,-179"/>
<text text-anchor="middle" x="5977" y="-156.8" font-family="Times,serif" font-size="14.00">CdkTreeModule </text>
</g>
<!-- DragDropModule  -->
<g id="node6" class="node">
<title>DragDropModule </title>
<polygon fill="#fb8072" stroke="black" points="5902.8,-179 5783.2,-179 5783.2,-143 5902.8,-143 5902.8,-179"/>
<text text-anchor="middle" x="5843" y="-156.8" font-family="Times,serif" font-size="14.00">DragDropModule </text>
</g>
<!-- MatAutocompleteModule  -->
<g id="node7" class="node">
<title>MatAutocompleteModule </title>
<polygon fill="#fb8072" stroke="black" points="5765.41,-179 5600.59,-179 5600.59,-143 5765.41,-143 5765.41,-179"/>
<text text-anchor="middle" x="5683" y="-156.8" font-family="Times,serif" font-size="14.00">MatAutocompleteModule </text>
</g>
<!-- MatBadgeModule  -->
<g id="node8" class="node">
<title>MatBadgeModule </title>
<polygon fill="#fb8072" stroke="black" points="5582.87,-179 5461.13,-179 5461.13,-143 5582.87,-143 5582.87,-179"/>
<text text-anchor="middle" x="5522" y="-156.8" font-family="Times,serif" font-size="14.00">MatBadgeModule </text>
</g>
<!-- MatBottomSheetModule  -->
<g id="node9" class="node">
<title>MatBottomSheetModule </title>
<polygon fill="#fb8072" stroke="black" points="5443.21,-179 5284.79,-179 5284.79,-143 5443.21,-143 5443.21,-179"/>
<text text-anchor="middle" x="5364" y="-156.8" font-family="Times,serif" font-size="14.00">MatBottomSheetModule </text>
</g>
<!-- MatButtonModule  -->
<g id="node10" class="node">
<title>MatButtonModule </title>
<polygon fill="#fb8072" stroke="black" points="5266.72,-179 5143.28,-179 5143.28,-143 5266.72,-143 5266.72,-179"/>
<text text-anchor="middle" x="5205" y="-156.8" font-family="Times,serif" font-size="14.00">MatButtonModule </text>
</g>
<!-- MatButtonToggleModule  -->
<g id="node11" class="node">
<title>MatButtonToggleModule </title>
<polygon fill="#fb8072" stroke="black" points="5124.88,-179 4961.12,-179 4961.12,-143 5124.88,-143 5124.88,-179"/>
<text text-anchor="middle" x="5043" y="-156.8" font-family="Times,serif" font-size="14.00">MatButtonToggleModule </text>
</g>
<!-- MatCardModule  -->
<g id="node12" class="node">
<title>MatCardModule </title>
<polygon fill="#fb8072" stroke="black" points="4943.31,-179 4830.69,-179 4830.69,-143 4943.31,-143 4943.31,-179"/>
<text text-anchor="middle" x="4887" y="-156.8" font-family="Times,serif" font-size="14.00">MatCardModule </text>
</g>
<!-- MatCheckboxModule  -->
<g id="node13" class="node">
<title>MatCheckboxModule </title>
<polygon fill="#fb8072" stroke="black" points="4812.37,-179 4669.63,-179 4669.63,-143 4812.37,-143 4812.37,-179"/>
<text text-anchor="middle" x="4741" y="-156.8" font-family="Times,serif" font-size="14.00">MatCheckboxModule </text>
</g>
<!-- MatChipsModule  -->
<g id="node14" class="node">
<title>MatChipsModule </title>
<polygon fill="#fb8072" stroke="black" points="4652.27,-179 4533.73,-179 4533.73,-143 4652.27,-143 4652.27,-179"/>
<text text-anchor="middle" x="4593" y="-156.8" font-family="Times,serif" font-size="14.00">MatChipsModule </text>
</g>
<!-- MatStepperModule  -->
<g id="node15" class="node">
<title>MatStepperModule </title>
<polygon fill="#fb8072" stroke="black" points="4516.36,-179 4387.64,-179 4387.64,-143 4516.36,-143 4516.36,-179"/>
<text text-anchor="middle" x="4452" y="-156.8" font-family="Times,serif" font-size="14.00">MatStepperModule </text>
</g>
<!-- MatDatepickerModule  -->
<g id="node16" class="node">
<title>MatDatepickerModule </title>
<polygon fill="#fb8072" stroke="black" points="4369.51,-179 4222.49,-179 4222.49,-143 4369.51,-143 4369.51,-179"/>
<text text-anchor="middle" x="4296" y="-156.8" font-family="Times,serif" font-size="14.00">MatDatepickerModule </text>
</g>
<!-- MatDialogModule  -->
<g id="node17" class="node">
<title>MatDialogModule </title>
<polygon fill="#fb8072" stroke="black" points="4204.7,-179 4081.3,-179 4081.3,-143 4204.7,-143 4204.7,-179"/>
<text text-anchor="middle" x="4143" y="-156.8" font-family="Times,serif" font-size="14.00">MatDialogModule </text>
</g>
<!-- MatDividerModule  -->
<g id="node18" class="node">
<title>MatDividerModule </title>
<polygon fill="#fb8072" stroke="black" points="4063.36,-179 3934.64,-179 3934.64,-143 4063.36,-143 4063.36,-179"/>
<text text-anchor="middle" x="3999" y="-156.8" font-family="Times,serif" font-size="14.00">MatDividerModule </text>
</g>
<!-- MatExpansionModule  -->
<g id="node19" class="node">
<title>MatExpansionModule </title>
<polygon fill="#fb8072" stroke="black" points="3916.2,-179 3771.8,-179 3771.8,-143 3916.2,-143 3916.2,-179"/>
<text text-anchor="middle" x="3844" y="-156.8" font-family="Times,serif" font-size="14.00">MatExpansionModule </text>
</g>
<!-- MatFormFieldModule  -->
<g id="node20" class="node">
<title>MatFormFieldModule </title>
<polygon fill="#fb8072" stroke="black" points="3753.21,-179 3608.79,-179 3608.79,-143 3753.21,-143 3753.21,-179"/>
<text text-anchor="middle" x="3681" y="-156.8" font-family="Times,serif" font-size="14.00">MatFormFieldModule </text>
</g>
<!-- MatGridListModule  -->
<g id="node21" class="node">
<title>MatGridListModule </title>
<polygon fill="#fb8072" stroke="black" points="3590.54,-179 3457.46,-179 3457.46,-143 3590.54,-143 3590.54,-179"/>
<text text-anchor="middle" x="3524" y="-156.8" font-family="Times,serif" font-size="14.00">MatGridListModule </text>
</g>
<!-- MatIconModule  -->
<g id="node22" class="node">
<title>MatIconModule </title>
<polygon fill="#fb8072" stroke="black" points="3439.48,-179 3328.52,-179 3328.52,-143 3439.48,-143 3439.48,-179"/>
<text text-anchor="middle" x="3384" y="-156.8" font-family="Times,serif" font-size="14.00">MatIconModule </text>
</g>
<!-- MatInputModule  -->
<g id="node23" class="node">
<title>MatInputModule </title>
<polygon fill="#fb8072" stroke="black" points="3310.65,-179 3195.35,-179 3195.35,-143 3310.65,-143 3310.65,-179"/>
<text text-anchor="middle" x="3253" y="-156.8" font-family="Times,serif" font-size="14.00">MatInputModule </text>
</g>
<!-- MatListModule  -->
<g id="node24" class="node">
<title>MatListModule </title>
<polygon fill="#fb8072" stroke="black" points="3177.88,-179 3070.12,-179 3070.12,-143 3177.88,-143 3177.88,-179"/>
<text text-anchor="middle" x="3124" y="-156.8" font-family="Times,serif" font-size="14.00">MatListModule </text>
</g>
<!-- MatMenuModule  -->
<g id="node25" class="node">
<title>MatMenuModule </title>
<polygon fill="#fb8072" stroke="black" points="3052.26,-179 2933.74,-179 2933.74,-143 3052.26,-143 3052.26,-179"/>
<text text-anchor="middle" x="2993" y="-156.8" font-family="Times,serif" font-size="14.00">MatMenuModule </text>
</g>
<!-- MatNativeDateModule  -->
<g id="node26" class="node">
<title>MatNativeDateModule </title>
<polygon fill="#fb8072" stroke="black" points="2915.84,-179 2766.16,-179 2766.16,-143 2915.84,-143 2915.84,-179"/>
<text text-anchor="middle" x="2841" y="-156.8" font-family="Times,serif" font-size="14.00">MatNativeDateModule </text>
</g>
<!-- MatPaginatorModule  -->
<g id="node27" class="node">
<title>MatPaginatorModule </title>
<polygon fill="#fb8072" stroke="black" points="2748.75,-179 2609.25,-179 2609.25,-143 2748.75,-143 2748.75,-179"/>
<text text-anchor="middle" x="2679" y="-156.8" font-family="Times,serif" font-size="14.00">MatPaginatorModule </text>
</g>
<!-- MatProgressBarModule  -->
<g id="node28" class="node">
<title>MatProgressBarModule </title>
<polygon fill="#fb8072" stroke="black" points="2591.02,-179 2436.98,-179 2436.98,-143 2591.02,-143 2591.02,-179"/>
<text text-anchor="middle" x="2514" y="-156.8" font-family="Times,serif" font-size="14.00">MatProgressBarModule </text>
</g>
<!-- MatProgressSpinnerModule  -->
<g id="node29" class="node">
<title>MatProgressSpinnerModule </title>
<polygon fill="#fb8072" stroke="black" points="2418.86,-179 2241.14,-179 2241.14,-143 2418.86,-143 2418.86,-179"/>
<text text-anchor="middle" x="2330" y="-156.8" font-family="Times,serif" font-size="14.00">MatProgressSpinnerModule </text>
</g>
<!-- MatRadioModule  -->
<g id="node30" class="node">
<title>MatRadioModule </title>
<polygon fill="#fb8072" stroke="black" points="2223.54,-179 2104.46,-179 2104.46,-143 2223.54,-143 2223.54,-179"/>
<text text-anchor="middle" x="2164" y="-156.8" font-family="Times,serif" font-size="14.00">MatRadioModule </text>
</g>
<!-- MatRippleModule  -->
<g id="node31" class="node">
<title>MatRippleModule </title>
<polygon fill="#fb8072" stroke="black" points="2086.43,-179 1963.57,-179 1963.57,-143 2086.43,-143 2086.43,-179"/>
<text text-anchor="middle" x="2025" y="-156.8" font-family="Times,serif" font-size="14.00">MatRippleModule </text>
</g>
<!-- MatSelectModule  -->
<g id="node32" class="node">
<title>MatSelectModule </title>
<polygon fill="#fb8072" stroke="black" points="1945.81,-179 1826.19,-179 1826.19,-143 1945.81,-143 1945.81,-179"/>
<text text-anchor="middle" x="1886" y="-156.8" font-family="Times,serif" font-size="14.00">MatSelectModule </text>
</g>
<!-- MatSidenavModule  -->
<g id="node33" class="node">
<title>MatSidenavModule </title>
<polygon fill="#fb8072" stroke="black" points="1808.2,-179 1677.8,-179 1677.8,-143 1808.2,-143 1808.2,-179"/>
<text text-anchor="middle" x="1743" y="-156.8" font-family="Times,serif" font-size="14.00">MatSidenavModule </text>
</g>
<!-- MatSliderModule  -->
<g id="node34" class="node">
<title>MatSliderModule </title>
<polygon fill="#fb8072" stroke="black" points="1659.54,-179 1540.46,-179 1540.46,-143 1659.54,-143 1659.54,-179"/>
<text text-anchor="middle" x="1600" y="-156.8" font-family="Times,serif" font-size="14.00">MatSliderModule </text>
</g>
<!-- MatSlideToggleModule  -->
<g id="node35" class="node">
<title>MatSlideToggleModule </title>
<polygon fill="#fb8072" stroke="black" points="1522.04,-179 1367.96,-179 1367.96,-143 1522.04,-143 1522.04,-179"/>
<text text-anchor="middle" x="1445" y="-156.8" font-family="Times,serif" font-size="14.00">MatSlideToggleModule </text>
</g>
<!-- MatSnackBarModule  -->
<g id="node36" class="node">
<title>MatSnackBarModule </title>
<polygon fill="#fb8072" stroke="black" points="1350.02,-179 1209.98,-179 1209.98,-143 1350.02,-143 1350.02,-179"/>
<text text-anchor="middle" x="1280" y="-156.8" font-family="Times,serif" font-size="14.00">MatSnackBarModule </text>
</g>
<!-- MatSortModule  -->
<g id="node37" class="node">
<title>MatSortModule </title>
<polygon fill="#fb8072" stroke="black" points="1192.43,-179 1083.57,-179 1083.57,-143 1192.43,-143 1192.43,-179"/>
<text text-anchor="middle" x="1138" y="-156.8" font-family="Times,serif" font-size="14.00">MatSortModule </text>
</g>
<!-- MatTableModule  -->
<g id="node38" class="node">
<title>MatTableModule </title>
<polygon fill="#fb8072" stroke="black" points="1065.97,-179 948.03,-179 948.03,-143 1065.97,-143 1065.97,-179"/>
<text text-anchor="middle" x="1007" y="-156.8" font-family="Times,serif" font-size="14.00">MatTableModule </text>
</g>
<!-- MatTabsModule  -->
<g id="node39" class="node">
<title>MatTabsModule </title>
<polygon fill="#fb8072" stroke="black" points="930.31,-179 817.69,-179 817.69,-143 930.31,-143 930.31,-179"/>
<text text-anchor="middle" x="874" y="-156.8" font-family="Times,serif" font-size="14.00">MatTabsModule </text>
</g>
<!-- MatToolbarModule  -->
<g id="node40" class="node">
<title>MatToolbarModule </title>
<polygon fill="#fb8072" stroke="black" points="799.92,-179 670.08,-179 670.08,-143 799.92,-143 799.92,-179"/>
<text text-anchor="middle" x="735" y="-156.8" font-family="Times,serif" font-size="14.00">MatToolbarModule </text>
</g>
<!-- MatTooltipModule  -->
<g id="node41" class="node">
<title>MatTooltipModule </title>
<polygon fill="#fb8072" stroke="black" points="652.32,-179 525.68,-179 525.68,-143 652.32,-143 652.32,-179"/>
<text text-anchor="middle" x="589" y="-156.8" font-family="Times,serif" font-size="14.00">MatTooltipModule </text>
</g>
<!-- MatTreeModule  -->
<g id="node42" class="node">
<title>MatTreeModule </title>
<polygon fill="#fb8072" stroke="black" points="507.74,-179 396.26,-179 396.26,-143 507.74,-143 507.74,-179"/>
<text text-anchor="middle" x="452" y="-156.8" font-family="Times,serif" font-size="14.00">MatTreeModule </text>
</g>
<!-- OverlayModule  -->
<g id="node43" class="node">
<title>OverlayModule </title>
<polygon fill="#fb8072" stroke="black" points="378.14,-179 269.86,-179 269.86,-143 378.14,-143 378.14,-179"/>
<text text-anchor="middle" x="324" y="-156.8" font-family="Times,serif" font-size="14.00">OverlayModule </text>
</g>
<!-- PortalModule  -->
<g id="node44" class="node">
<title>PortalModule </title>
<polygon fill="#fb8072" stroke="black" points="252.49,-179 155.51,-179 155.51,-143 252.49,-143 252.49,-179"/>
<text text-anchor="middle" x="204" y="-156.8" font-family="Times,serif" font-size="14.00">PortalModule </text>
</g>
<!-- ScrollingModule  -->
<g id="node45" class="node">
<title>ScrollingModule </title>
<polygon fill="#fb8072" stroke="black" points="138.38,-179 23.62,-179 23.62,-143 138.38,-143 138.38,-179"/>
<text text-anchor="middle" x="81" y="-156.8" font-family="Times,serif" font-size="14.00">ScrollingModule </text>
</g>
<!-- MaterialModule -->
<g id="node46" class="node">
<title>MaterialModule</title>
<polygon fill="#8dd3c7" stroke="black" points="3306.47,-114 3303.47,-118 3282.47,-118 3279.47,-114 3199.53,-114 3199.53,-78 3306.47,-78 3306.47,-114"/>
<text text-anchor="middle" x="3253" y="-91.8" font-family="Times,serif" font-size="14.00">MaterialModule</text>
</g>
<!-- MaterialModule&#45;&gt;A11yModule  -->
<g id="edge1" class="edge">
<title>MaterialModule&#45;&gt;A11yModule </title>
<path fill="none" stroke="black" stroke-dasharray="5,2" d="M3297.57,-114.08C3297.57,-115.85 3297.57,-117 3297.57,-117 3297.57,-117 6519,-117 6519,-117 6519,-117 6519,-132.85 6519,-132.85"/>
<polygon fill="black" stroke="black" points="6515.5,-132.85 6519,-142.85 6522.5,-132.85 6515.5,-132.85"/>
</g>
<!-- MaterialModule&#45;&gt;ClipboardModule  -->
<g id="edge2" class="edge">
<title>MaterialModule&#45;&gt;ClipboardModule </title>
<path fill="none" stroke="black" stroke-dasharray="5,2" d="M3288.66,-114.06C3288.66,-118.49 3288.66,-122 3288.66,-122 3288.66,-122 6394,-122 6394,-122 6394,-122 6394,-132.87 6394,-132.87"/>
<polygon fill="black" stroke="black" points="6390.5,-132.87 6394,-142.87 6397.5,-132.87 6390.5,-132.87"/>
</g>
<!-- MaterialModule&#45;&gt;CdkStepperModule  -->
<g id="edge3" class="edge">
<title>MaterialModule&#45;&gt;CdkStepperModule </title>
<path fill="none" stroke="black" stroke-dasharray="5,2" d="M3279.74,-114.24C3279.74,-121.43 3279.74,-128 3279.74,-128 3279.74,-128 6252,-128 6252,-128 6252,-128 6252,-132.96 6252,-132.96"/>
<polygon fill="black" stroke="black" points="6248.5,-132.96 6252,-142.96 6255.5,-132.96 6248.5,-132.96"/>
</g>
<!-- MaterialModule&#45;&gt;CdkTableModule  -->
<g id="edge4" class="edge">
<title>MaterialModule&#45;&gt;CdkTableModule </title>
<path fill="none" stroke="black" stroke-dasharray="5,2" d="M3270.83,-114.07C3270.83,-123.46 3270.83,-133 3270.83,-133 3270.83,-133 6110,-133 6110,-133 6110,-133 6110,-133.98 6110,-133.98"/>
<polygon fill="black" stroke="black" points="6106.5,-132.79 6110,-142.79 6113.5,-132.79 6106.5,-132.79"/>
</g>
<!-- MaterialModule&#45;&gt;CdkTreeModule  -->
<g id="edge5" class="edge">
<title>MaterialModule&#45;&gt;CdkTreeModule </title>
<path fill="none" stroke="black" stroke-dasharray="5,2" d="M3261.91,-114.06C3261.91,-125.44 3261.91,-138 3261.91,-138 3261.91,-138 5977,-138 5977,-138 5977,-138 5977,-138.49 5977,-138.49"/>
<polygon fill="black" stroke="black" points="5973.5,-132.88 5977,-142.88 5980.5,-132.88 5973.5,-132.88"/>
</g>
<!-- MaterialModule&#45;&gt;DragDropModule  -->
<g id="edge6" class="edge">
<title>MaterialModule&#45;&gt;DragDropModule </title>
<path fill="none" stroke="black" stroke-dasharray="5,2" d="M3306.5,-80C3676.72,-80 5843,-80 5843,-80 5843,-80 5843,-132.62 5843,-132.62"/>
<polygon fill="black" stroke="black" points="5839.5,-132.62 5843,-142.62 5846.5,-132.62 5839.5,-132.62"/>
</g>
<!-- MaterialModule&#45;&gt;MatAutocompleteModule  -->
<g id="edge7" class="edge">
<title>MaterialModule&#45;&gt;MatAutocompleteModule </title>
<path fill="none" stroke="black" stroke-dasharray="5,2" d="M3306.59,-82C3663.54,-82 5683,-82 5683,-82 5683,-82 5683,-132.68 5683,-132.68"/>
<polygon fill="black" stroke="black" points="5679.5,-132.68 5683,-142.68 5686.5,-132.68 5679.5,-132.68"/>
</g>
<!-- MaterialModule&#45;&gt;MatBadgeModule  -->
<g id="edge8" class="edge">
<title>MaterialModule&#45;&gt;MatBadgeModule </title>
<path fill="none" stroke="black" stroke-dasharray="5,2" d="M3306.57,-84C3649.45,-84 5522,-84 5522,-84 5522,-84 5522,-132.75 5522,-132.75"/>
<polygon fill="black" stroke="black" points="5518.5,-132.75 5522,-142.75 5525.5,-132.75 5518.5,-132.75"/>
</g>
<!-- MaterialModule&#45;&gt;MatBottomSheetModule  -->
<g id="edge9" class="edge">
<title>MaterialModule&#45;&gt;MatBottomSheetModule </title>
<path fill="none" stroke="black" stroke-dasharray="5,2" d="M3306.5,-86C3634.93,-86 5364,-86 5364,-86 5364,-86 5364,-132.84 5364,-132.84"/>
<polygon fill="black" stroke="black" points="5360.5,-132.84 5364,-142.84 5367.5,-132.84 5360.5,-132.84"/>
</g>
<!-- MaterialModule&#45;&gt;MatButtonModule  -->
<g id="edge10" class="edge">
<title>MaterialModule&#45;&gt;MatButtonModule </title>
<path fill="none" stroke="black" stroke-dasharray="5,2" d="M3306.48,-88C3619.93,-88 5205,-88 5205,-88 5205,-88 5205,-132.96 5205,-132.96"/>
<polygon fill="black" stroke="black" points="5201.5,-132.96 5205,-142.96 5208.5,-132.96 5201.5,-132.96"/>
</g>
<!-- MaterialModule&#45;&gt;MatButtonToggleModule  -->
<g id="edge11" class="edge">
<title>MaterialModule&#45;&gt;MatButtonToggleModule </title>
<path fill="none" stroke="black" stroke-dasharray="5,2" d="M3306.57,-90C3604.41,-90 5043,-90 5043,-90 5043,-90 5043,-132.72 5043,-132.72"/>
<polygon fill="black" stroke="black" points="5039.5,-132.72 5043,-142.72 5046.5,-132.72 5039.5,-132.72"/>
</g>
<!-- MaterialModule&#45;&gt;MatCardModule  -->
<g id="edge12" class="edge">
<title>MaterialModule&#45;&gt;MatCardModule </title>
<path fill="none" stroke="black" stroke-dasharray="5,2" d="M3306.9,-92C3589.47,-92 4887,-92 4887,-92 4887,-92 4887,-132.87 4887,-132.87"/>
<polygon fill="black" stroke="black" points="4883.5,-132.87 4887,-142.87 4890.5,-132.87 4883.5,-132.87"/>
</g>
<!-- MaterialModule&#45;&gt;MatCheckboxModule  -->
<g id="edge13" class="edge">
<title>MaterialModule&#45;&gt;MatCheckboxModule </title>
<path fill="none" stroke="black" stroke-dasharray="5,2" d="M3306.84,-94C3573.61,-94 4741,-94 4741,-94 4741,-94 4741,-132.69 4741,-132.69"/>
<polygon fill="black" stroke="black" points="4737.5,-132.69 4741,-142.69 4744.5,-132.69 4737.5,-132.69"/>
</g>
<!-- MaterialModule&#45;&gt;MatChipsModule  -->
<g id="edge14" class="edge">
<title>MaterialModule&#45;&gt;MatChipsModule </title>
<path fill="none" stroke="black" stroke-dasharray="5,2" d="M3306.77,-96C3556.73,-96 4593,-96 4593,-96 4593,-96 4593,-132.89 4593,-132.89"/>
<polygon fill="black" stroke="black" points="4589.5,-132.89 4593,-142.89 4596.5,-132.89 4589.5,-132.89"/>
</g>
<!-- MaterialModule&#45;&gt;MatStepperModule  -->
<g id="edge15" class="edge">
<title>MaterialModule&#45;&gt;MatStepperModule </title>
<path fill="none" stroke="black" stroke-dasharray="5,2" d="M3306.85,-98C3540.15,-98 4452,-98 4452,-98 4452,-98 4452,-132.78 4452,-132.78"/>
<polygon fill="black" stroke="black" points="4448.5,-132.78 4452,-142.78 4455.5,-132.78 4448.5,-132.78"/>
</g>
<!-- MaterialModule&#45;&gt;MatDatepickerModule  -->
<g id="edge16" class="edge">
<title>MaterialModule&#45;&gt;MatDatepickerModule </title>
<path fill="none" stroke="black" stroke-dasharray="5,2" d="M3306.52,-100C3519.58,-100 4296,-100 4296,-100 4296,-100 4296,-132.7 4296,-132.7"/>
<polygon fill="black" stroke="black" points="4292.5,-132.7 4296,-142.7 4299.5,-132.7 4292.5,-132.7"/>
</g>
<!-- MaterialModule&#45;&gt;MatDialogModule  -->
<g id="edge17" class="edge">
<title>MaterialModule&#45;&gt;MatDialogModule </title>
<path fill="none" stroke="black" stroke-dasharray="5,2" d="M3306.67,-102C3499.09,-102 4143,-102 4143,-102 4143,-102 4143,-132.98 4143,-132.98"/>
<polygon fill="black" stroke="black" points="4139.5,-132.98 4143,-142.98 4146.5,-132.98 4139.5,-132.98"/>
</g>
<!-- MaterialModule&#45;&gt;MatDividerModule  -->
<g id="edge18" class="edge">
<title>MaterialModule&#45;&gt;MatDividerModule </title>
<path fill="none" stroke="black" stroke-dasharray="5,2" d="M3306.65,-104C3477.7,-104 3999,-104 3999,-104 3999,-104 3999,-132.96 3999,-132.96"/>
<polygon fill="black" stroke="black" points="3995.5,-132.96 3999,-142.96 4002.5,-132.96 3995.5,-132.96"/>
</g>
<!-- MaterialModule&#45;&gt;MatExpansionModule  -->
<g id="edge19" class="edge">
<title>MaterialModule&#45;&gt;MatExpansionModule </title>
<path fill="none" stroke="black" stroke-dasharray="5,2" d="M3306.49,-106C3451.97,-106 3844,-106 3844,-106 3844,-106 3844,-132.99 3844,-132.99"/>
<polygon fill="black" stroke="black" points="3840.5,-132.99 3844,-142.99 3847.5,-132.99 3840.5,-132.99"/>
</g>
<!-- MaterialModule&#45;&gt;MatFormFieldModule  -->
<g id="edge20" class="edge">
<title>MaterialModule&#45;&gt;MatFormFieldModule </title>
<path fill="none" stroke="black" stroke-dasharray="5,2" d="M3306.77,-108C3421.73,-108 3681,-108 3681,-108 3681,-108 3681,-132.76 3681,-132.76"/>
<polygon fill="black" stroke="black" points="3677.5,-132.76 3681,-142.76 3684.5,-132.76 3677.5,-132.76"/>
</g>
<!-- MaterialModule&#45;&gt;MatGridListModule  -->
<g id="edge21" class="edge">
<title>MaterialModule&#45;&gt;MatGridListModule </title>
<path fill="none" stroke="black" stroke-dasharray="5,2" d="M3306.54,-110C3385.52,-110 3524,-110 3524,-110 3524,-110 3524,-132.88 3524,-132.88"/>
<polygon fill="black" stroke="black" points="3520.5,-132.88 3524,-142.88 3527.5,-132.88 3520.5,-132.88"/>
</g>
<!-- MaterialModule&#45;&gt;MatIconModule  -->
<g id="edge22" class="edge">
<title>MaterialModule&#45;&gt;MatIconModule </title>
<path fill="none" stroke="black" stroke-dasharray="5,2" d="M3306.66,-112C3342.84,-112 3384,-112 3384,-112 3384,-112 3384,-132.75 3384,-132.75"/>
<polygon fill="black" stroke="black" points="3380.5,-132.75 3384,-142.75 3387.5,-132.75 3380.5,-132.75"/>
</g>
<!-- MaterialModule&#45;&gt;MatInputModule  -->
<g id="edge23" class="edge">
<title>MaterialModule&#45;&gt;MatInputModule </title>
<path fill="none" stroke="black" stroke-dasharray="5,2" d="M3253,-114.11C3253,-114.11 3253,-132.99 3253,-132.99"/>
<polygon fill="black" stroke="black" points="3249.5,-132.99 3253,-142.99 3256.5,-132.99 3249.5,-132.99"/>
</g>
<!-- MaterialModule&#45;&gt;MatListModule  -->
<g id="edge24" class="edge">
<title>MaterialModule&#45;&gt;MatListModule </title>
<path fill="none" stroke="black" stroke-dasharray="5,2" d="M3199.41,-112C3163.97,-112 3124,-112 3124,-112 3124,-112 3124,-132.75 3124,-132.75"/>
<polygon fill="black" stroke="black" points="3120.5,-132.75 3124,-142.75 3127.5,-132.75 3120.5,-132.75"/>
</g>
<!-- MaterialModule&#45;&gt;MatMenuModule  -->
<g id="edge25" class="edge">
<title>MaterialModule&#45;&gt;MatMenuModule </title>
<path fill="none" stroke="black" stroke-dasharray="5,2" d="M3199.44,-110C3123.33,-110 2993,-110 2993,-110 2993,-110 2993,-132.88 2993,-132.88"/>
<polygon fill="black" stroke="black" points="2989.5,-132.88 2993,-142.88 2996.5,-132.88 2989.5,-132.88"/>
</g>
<!-- MaterialModule&#45;&gt;MatNativeDateModule  -->
<g id="edge26" class="edge">
<title>MaterialModule&#45;&gt;MatNativeDateModule </title>
<path fill="none" stroke="black" stroke-dasharray="5,2" d="M3199.14,-108C3087.46,-108 2841,-108 2841,-108 2841,-108 2841,-132.76 2841,-132.76"/>
<polygon fill="black" stroke="black" points="2837.5,-132.76 2841,-142.76 2844.5,-132.76 2837.5,-132.76"/>
</g>
<!-- MaterialModule&#45;&gt;MatPaginatorModule  -->
<g id="edge27" class="edge">
<title>MaterialModule&#45;&gt;MatPaginatorModule </title>
<path fill="none" stroke="black" stroke-dasharray="5,2" d="M3199.51,-106C3057.02,-106 2679,-106 2679,-106 2679,-106 2679,-132.99 2679,-132.99"/>
<polygon fill="black" stroke="black" points="2675.5,-132.99 2679,-142.99 2682.5,-132.99 2675.5,-132.99"/>
</g>
<!-- MaterialModule&#45;&gt;MatProgressBarModule  -->
<g id="edge28" class="edge">
<title>MaterialModule&#45;&gt;MatProgressBarModule </title>
<path fill="none" stroke="black" stroke-dasharray="5,2" d="M3199.26,-104C3029.2,-104 2514,-104 2514,-104 2514,-104 2514,-132.96 2514,-132.96"/>
<polygon fill="black" stroke="black" points="2510.5,-132.96 2514,-142.96 2517.5,-132.96 2510.5,-132.96"/>
</g>
<!-- MaterialModule&#45;&gt;MatProgressSpinnerModule  -->
<g id="edge29" class="edge">
<title>MaterialModule&#45;&gt;MatProgressSpinnerModule </title>
<path fill="none" stroke="black" stroke-dasharray="5,2" d="M3199.39,-102C3002.4,-102 2330,-102 2330,-102 2330,-102 2330,-132.98 2330,-132.98"/>
<polygon fill="black" stroke="black" points="2326.5,-132.98 2330,-142.98 2333.5,-132.98 2326.5,-132.98"/>
</g>
<!-- MaterialModule&#45;&gt;MatRadioModule  -->
<g id="edge30" class="edge">
<title>MaterialModule&#45;&gt;MatRadioModule </title>
<path fill="none" stroke="black" stroke-dasharray="5,2" d="M3199.37,-100C2980.18,-100 2164,-100 2164,-100 2164,-100 2164,-132.7 2164,-132.7"/>
<polygon fill="black" stroke="black" points="2160.5,-132.7 2164,-142.7 2167.5,-132.7 2160.5,-132.7"/>
</g>
<!-- MaterialModule&#45;&gt;MatRippleModule  -->
<g id="edge31" class="edge">
<title>MaterialModule&#45;&gt;MatRippleModule </title>
<path fill="none" stroke="black" stroke-dasharray="5,2" d="M3199.44,-98C2963.09,-98 2025,-98 2025,-98 2025,-98 2025,-132.78 2025,-132.78"/>
<polygon fill="black" stroke="black" points="2021.5,-132.78 2025,-142.78 2028.5,-132.78 2021.5,-132.78"/>
</g>
<!-- MaterialModule&#45;&gt;MatSelectModule  -->
<g id="edge32" class="edge">
<title>MaterialModule&#45;&gt;MatSelectModule </title>
<path fill="none" stroke="black" stroke-dasharray="5,2" d="M3199.41,-96C2946.67,-96 1886,-96 1886,-96 1886,-96 1886,-132.89 1886,-132.89"/>
<polygon fill="black" stroke="black" points="1882.5,-132.89 1886,-142.89 1889.5,-132.89 1882.5,-132.89"/>
</g>
<!-- MaterialModule&#45;&gt;MatSidenavModule  -->
<g id="edge33" class="edge">
<title>MaterialModule&#45;&gt;MatSidenavModule </title>
<path fill="none" stroke="black" stroke-dasharray="5,2" d="M3199.26,-94C2930.27,-94 1743,-94 1743,-94 1743,-94 1743,-132.69 1743,-132.69"/>
<polygon fill="black" stroke="black" points="1739.5,-132.69 1743,-142.69 1746.5,-132.69 1739.5,-132.69"/>
</g>
<!-- MaterialModule&#45;&gt;MatSliderModule  -->
<g id="edge34" class="edge">
<title>MaterialModule&#45;&gt;MatSliderModule </title>
<path fill="none" stroke="black" stroke-dasharray="5,2" d="M3199.41,-92C2915.5,-92 1600,-92 1600,-92 1600,-92 1600,-132.87 1600,-132.87"/>
<polygon fill="black" stroke="black" points="1596.5,-132.87 1600,-142.87 1603.5,-132.87 1596.5,-132.87"/>
</g>
<!-- MaterialModule&#45;&gt;MatSlideToggleModule  -->
<g id="edge35" class="edge">
<title>MaterialModule&#45;&gt;MatSlideToggleModule </title>
<path fill="none" stroke="black" stroke-dasharray="5,2" d="M3199.38,-90C2899.64,-90 1445,-90 1445,-90 1445,-90 1445,-132.72 1445,-132.72"/>
<polygon fill="black" stroke="black" points="1441.5,-132.72 1445,-142.72 1448.5,-132.72 1441.5,-132.72"/>
</g>
<!-- MaterialModule&#45;&gt;MatSnackBarModule  -->
<g id="edge36" class="edge">
<title>MaterialModule&#45;&gt;MatSnackBarModule </title>
<path fill="none" stroke="black" stroke-dasharray="5,2" d="M3199.46,-88C2883.86,-88 1280,-88 1280,-88 1280,-88 1280,-132.96 1280,-132.96"/>
<polygon fill="black" stroke="black" points="1276.5,-132.96 1280,-142.96 1283.5,-132.96 1276.5,-132.96"/>
</g>
<!-- MaterialModule&#45;&gt;MatSortModule  -->
<g id="edge37" class="edge">
<title>MaterialModule&#45;&gt;MatSortModule </title>
<path fill="none" stroke="black" stroke-dasharray="5,2" d="M3199.4,-86C2870.35,-86 1138,-86 1138,-86 1138,-86 1138,-132.84 1138,-132.84"/>
<polygon fill="black" stroke="black" points="1134.5,-132.84 1138,-142.84 1141.5,-132.84 1134.5,-132.84"/>
</g>
<!-- MaterialModule&#45;&gt;MatTableModule  -->
<g id="edge38" class="edge">
<title>MaterialModule&#45;&gt;MatTableModule </title>
<path fill="none" stroke="black" stroke-dasharray="5,2" d="M3199.42,-84C2858.58,-84 1007,-84 1007,-84 1007,-84 1007,-132.75 1007,-132.75"/>
<polygon fill="black" stroke="black" points="1003.5,-132.75 1007,-142.75 1010.5,-132.75 1003.5,-132.75"/>
</g>
<!-- MaterialModule&#45;&gt;MatTabsModule  -->
<g id="edge39" class="edge">
<title>MaterialModule&#45;&gt;MatTabsModule </title>
<path fill="none" stroke="black" stroke-dasharray="5,2" d="M3199.41,-82C2846.84,-82 874,-82 874,-82 874,-82 874,-132.68 874,-132.68"/>
<polygon fill="black" stroke="black" points="870.5,-132.68 874,-142.68 877.5,-132.68 870.5,-132.68"/>
</g>
<!-- MaterialModule&#45;&gt;MatToolbarModule  -->
<g id="edge40" class="edge">
<title>MaterialModule&#45;&gt;MatToolbarModule </title>
<path fill="none" stroke="black" stroke-dasharray="5,2" d="M3199.24,-80C2834.32,-80 735,-80 735,-80 735,-80 735,-132.62 735,-132.62"/>
<polygon fill="black" stroke="black" points="731.5,-132.62 735,-142.62 738.5,-132.62 731.5,-132.62"/>
</g>
<!-- MaterialModule&#45;&gt;MatTooltipModule  -->
<g id="edge41" class="edge">
<title>MaterialModule&#45;&gt;MatTooltipModule </title>
<path fill="none" stroke="black" stroke-dasharray="5,2" d="M3244.09,-114.04C3244.09,-126.56 3244.09,-141 3244.09,-141 3244.09,-141 589,-141 589,-141 589,-141 589,-141.18 589,-141.18"/>
<polygon fill="black" stroke="black" points="585.5,-132.85 589,-142.85 592.5,-132.85 585.5,-132.85"/>
</g>
<!-- MaterialModule&#45;&gt;MatTreeModule  -->
<g id="edge42" class="edge">
<title>MaterialModule&#45;&gt;MatTreeModule </title>
<path fill="none" stroke="black" stroke-dasharray="5,2" d="M3235.17,-114.13C3235.17,-124.71 3235.17,-136 3235.17,-136 3235.17,-136 452,-136 452,-136 452,-136 452,-136.68 452,-136.68"/>
<polygon fill="black" stroke="black" points="448.5,-132.83 452,-142.83 455.5,-132.83 448.5,-132.83"/>
</g>
<!-- MaterialModule&#45;&gt;OverlayModule  -->
<g id="edge43" class="edge">
<title>MaterialModule&#45;&gt;OverlayModule </title>
<path fill="none" stroke="black" stroke-dasharray="5,2" d="M3226.26,-114.19C3226.26,-122.28 3226.26,-130 3226.26,-130 3226.26,-130 324,-130 324,-130 324,-130 324,-132.97 324,-132.97"/>
<polygon fill="black" stroke="black" points="320.5,-132.97 324,-142.97 327.5,-132.97 320.5,-132.97"/>
</g>
<!-- MaterialModule&#45;&gt;PortalModule  -->
<g id="edge44" class="edge">
<title>MaterialModule&#45;&gt;PortalModule </title>
<path fill="none" stroke="black" stroke-dasharray="5,2" d="M3217.34,-114.2C3217.34,-120.03 3217.34,-125 3217.34,-125 3217.34,-125 204,-125 204,-125 204,-125 204,-132.58 204,-132.58"/>
<polygon fill="black" stroke="black" points="200.5,-132.58 204,-142.58 207.5,-132.58 200.5,-132.58"/>
</g>
<!-- MaterialModule&#45;&gt;ScrollingModule  -->
<g id="edge45" class="edge">
<title>MaterialModule&#45;&gt;ScrollingModule </title>
<path fill="none" stroke="black" stroke-dasharray="5,2" d="M3208.43,-114.19C3208.43,-117.54 3208.43,-120 3208.43,-120 3208.43,-120 81,-120 81,-120 81,-120 81,-132.9 81,-132.9"/>
<polygon fill="black" stroke="black" points="77.5,-132.9 81,-142.9 84.5,-132.9 77.5,-132.9"/>
</g>
</g>
</svg>
