<?xml version="1.0" encoding="UTF-8" standalone="no"?>
<!DOCTYPE svg PUBLIC "-//W3C//DTD SVG 1.1//EN"
 "http://www.w3.org/Graphics/SVG/1.1/DTD/svg11.dtd">
<!-- Generated by graphviz version 2.47.0 (20210316.0004)
 -->
<!-- Title: dependencies Pages: 1 -->
<svg width="3822pt" height="284pt"
 viewBox="0.00 0.00 3822.00 284.00" xmlns="http://www.w3.org/2000/svg" xmlns:xlink="http://www.w3.org/1999/xlink">
<g id="graph0" class="graph" transform="scale(1 1) rotate(0) translate(4 280)">
<title>dependencies</title>
<polygon fill="white" stroke="transparent" points="-4,4 -4,-280 3818,-280 3818,4 -4,4"/>
<text text-anchor="start" x="1886.01" y="-42.4" font-family="Times-12" font-weight="bold" font-size="14.00">Legend</text>
<polygon fill="#ffffb3" stroke="transparent" points="1673,-10 1673,-30 1693,-30 1693,-10 1673,-10"/>
<text text-anchor="start" x="1696.63" y="-15.4" font-family="Times-12" font-size="14.00"> &#160;Declarations</text>
<polygon fill="#8dd3c7" stroke="transparent" points="1786,-10 1786,-30 1806,-30 1806,-10 1786,-10"/>
<text text-anchor="start" x="1809.73" y="-15.4" font-family="Times-12" font-size="14.00"> &#160;Module</text>
<polygon fill="#80b1d3" stroke="transparent" points="1872,-10 1872,-30 1892,-30 1892,-10 1872,-10"/>
<text text-anchor="start" x="1895.78" y="-15.4" font-family="Times-12" font-size="14.00"> &#160;Bootstrap</text>
<polygon fill="#fdb462" stroke="transparent" points="1969,-10 1969,-30 1989,-30 1989,-10 1969,-10"/>
<text text-anchor="start" x="1992.67" y="-15.4" font-family="Times-12" font-size="14.00"> &#160;Providers</text>
<polygon fill="#fb8072" stroke="transparent" points="2065,-10 2065,-30 2085,-30 2085,-10 2065,-10"/>
<text text-anchor="start" x="2088.73" y="-15.4" font-family="Times-12" font-size="14.00"> &#160;Exports</text>
<g id="clust1" class="cluster">
<title>cluster_SharedModule</title>
<polygon fill="none" stroke="black" stroke-dasharray="1,5" points="8,-70 8,-268 3806,-268 3806,-70 8,-70"/>
</g>
<g id="clust23" class="cluster">
<title>cluster_SharedModule_exports</title>
<polygon fill="none" stroke="black" points="280,-208 280,-260 3593,-260 3593,-208 280,-208"/>
</g>
<g id="clust22" class="cluster">
<title>cluster_SharedModule_imports</title>
<polygon fill="none" stroke="black" points="3270,-78 3270,-130 3798,-130 3798,-78 3270,-78"/>
</g>
<g id="clust2" class="cluster">
<title>cluster_SharedModule_declarations</title>
<polygon fill="none" stroke="black" points="16,-78 16,-130 3262,-130 3262,-78 16,-78"/>
</g>
<!-- AutocompleteComponent -->
<g id="node1" class="node">
<title>AutocompleteComponent</title>
<polygon fill="#ffffb3" stroke="black" points="3254.15,-122 3093.85,-122 3093.85,-86 3254.15,-86 3254.15,-122"/>
<text text-anchor="middle" x="3174" y="-99.8" font-family="Times,serif" font-size="14.00">AutocompleteComponent</text>
</g>
<!-- SharedModule -->
<g id="node20" class="node">
<title>SharedModule</title>
<polygon fill="#8dd3c7" stroke="black" points="2155.42,-187 2152.42,-191 2131.42,-191 2128.42,-187 2056.58,-187 2056.58,-151 2155.42,-151 2155.42,-187"/>
<text text-anchor="middle" x="2106" y="-164.8" font-family="Times,serif" font-size="14.00">SharedModule</text>
</g>
<!-- AutocompleteComponent&#45;&gt;SharedModule -->
<g id="edge1" class="edge">
<title>AutocompleteComponent&#45;&gt;SharedModule</title>
<path fill="none" stroke="black" d="M3098.15,-122.02C3098.15,-139.37 3098.15,-163 3098.15,-163 3098.15,-163 2165.54,-163 2165.54,-163"/>
<polygon fill="black" stroke="black" points="2165.54,-159.5 2155.54,-163 2165.54,-166.5 2165.54,-159.5"/>
</g>
<!-- ButtonComponent -->
<g id="node2" class="node">
<title>ButtonComponent</title>
<polygon fill="#ffffb3" stroke="black" points="3075.95,-122 2956.05,-122 2956.05,-86 3075.95,-86 3075.95,-122"/>
<text text-anchor="middle" x="3016" y="-99.8" font-family="Times,serif" font-size="14.00">ButtonComponent</text>
</g>
<!-- ButtonComponent&#45;&gt;SharedModule -->
<g id="edge2" class="edge">
<title>ButtonComponent&#45;&gt;SharedModule</title>
<path fill="none" stroke="black" d="M2965.06,-122.03C2965.06,-139.06 2965.06,-162 2965.06,-162 2965.06,-162 2165.27,-162 2165.27,-162"/>
<polygon fill="black" stroke="black" points="2165.27,-158.5 2155.27,-162 2165.27,-165.5 2165.27,-158.5"/>
</g>
<!-- CheckboxComponent -->
<g id="node3" class="node">
<title>CheckboxComponent</title>
<polygon fill="#ffffb3" stroke="black" points="2938.1,-122 2799.9,-122 2799.9,-86 2938.1,-86 2938.1,-122"/>
<text text-anchor="middle" x="2869" y="-99.8" font-family="Times,serif" font-size="14.00">CheckboxComponent</text>
</g>
<!-- CheckboxComponent&#45;&gt;SharedModule -->
<g id="edge3" class="edge">
<title>CheckboxComponent&#45;&gt;SharedModule</title>
<path fill="none" stroke="black" d="M2813.2,-122.03C2813.2,-138.4 2813.2,-160 2813.2,-160 2813.2,-160 2165.45,-160 2165.45,-160"/>
<polygon fill="black" stroke="black" points="2165.45,-156.5 2155.45,-160 2165.45,-163.5 2165.45,-156.5"/>
</g>
<!-- DateComponent -->
<g id="node4" class="node">
<title>DateComponent</title>
<polygon fill="#ffffb3" stroke="black" points="2781.76,-122 2674.24,-122 2674.24,-86 2781.76,-86 2781.76,-122"/>
<text text-anchor="middle" x="2728" y="-99.8" font-family="Times,serif" font-size="14.00">DateComponent</text>
</g>
<!-- DateComponent&#45;&gt;SharedModule -->
<g id="edge4" class="edge">
<title>DateComponent&#45;&gt;SharedModule</title>
<path fill="none" stroke="black" d="M2728,-122.28C2728,-137.95 2728,-158 2728,-158 2728,-158 2165.33,-158 2165.33,-158"/>
<polygon fill="black" stroke="black" points="2165.33,-154.5 2155.33,-158 2165.33,-161.5 2165.33,-154.5"/>
</g>
<!-- DynamicFieldDirective -->
<g id="node5" class="node">
<title>DynamicFieldDirective</title>
<polygon fill="#ffffb3" stroke="black" points="2656.18,-122 2507.82,-122 2507.82,-86 2656.18,-86 2656.18,-122"/>
<text text-anchor="middle" x="2582" y="-99.8" font-family="Times,serif" font-size="14.00">DynamicFieldDirective</text>
</g>
<!-- DynamicFieldDirective&#45;&gt;SharedModule -->
<g id="edge5" class="edge">
<title>DynamicFieldDirective&#45;&gt;SharedModule</title>
<path fill="none" stroke="black" d="M2564.02,-122.24C2564.02,-137.57 2564.02,-157 2564.02,-157 2564.02,-157 2165.45,-157 2165.45,-157"/>
<polygon fill="black" stroke="black" points="2165.45,-153.5 2155.45,-157 2165.45,-160.5 2165.45,-153.5"/>
</g>
<!-- DynamicFormComponent -->
<g id="node6" class="node">
<title>DynamicFormComponent</title>
<polygon fill="#ffffb3" stroke="black" points="2489.48,-122 2326.52,-122 2326.52,-86 2489.48,-86 2489.48,-122"/>
<text text-anchor="middle" x="2408" y="-99.8" font-family="Times,serif" font-size="14.00">DynamicFormComponent</text>
</g>
<!-- DynamicFormComponent&#45;&gt;SharedModule -->
<g id="edge6" class="edge">
<title>DynamicFormComponent&#45;&gt;SharedModule</title>
<path fill="none" stroke="black" d="M2332.27,-122.12C2332.27,-136.78 2332.27,-155 2332.27,-155 2332.27,-155 2165.38,-155 2165.38,-155"/>
<polygon fill="black" stroke="black" points="2165.38,-151.5 2155.38,-155 2165.38,-158.5 2165.38,-151.5"/>
</g>
<!-- HeadingComponent -->
<g id="node7" class="node">
<title>HeadingComponent</title>
<polygon fill="#ffffb3" stroke="black" points="2308.26,-122 2179.74,-122 2179.74,-86 2308.26,-86 2308.26,-122"/>
<text text-anchor="middle" x="2244" y="-99.8" font-family="Times,serif" font-size="14.00">HeadingComponent</text>
</g>
<!-- HeadingComponent&#45;&gt;SharedModule -->
<g id="edge7" class="edge">
<title>HeadingComponent&#45;&gt;SharedModule</title>
<path fill="none" stroke="black" d="M2266.91,-122.25C2266.91,-136.18 2266.91,-153 2266.91,-153 2266.91,-153 2165.59,-153 2165.59,-153"/>
<polygon fill="black" stroke="black" points="2165.59,-149.5 2155.59,-153 2165.59,-156.5 2165.59,-149.5"/>
</g>
<!-- InputComponent -->
<g id="node8" class="node">
<title>InputComponent</title>
<polygon fill="#ffffb3" stroke="black" points="2161.38,-122 2050.62,-122 2050.62,-86 2161.38,-86 2161.38,-122"/>
<text text-anchor="middle" x="2106" y="-99.8" font-family="Times,serif" font-size="14.00">InputComponent</text>
</g>
<!-- InputComponent&#45;&gt;SharedModule -->
<g id="edge8" class="edge">
<title>InputComponent&#45;&gt;SharedModule</title>
<path fill="none" stroke="black" d="M2106,-122.11C2106,-122.11 2106,-140.99 2106,-140.99"/>
<polygon fill="black" stroke="black" points="2102.5,-140.99 2106,-150.99 2109.5,-140.99 2102.5,-140.99"/>
</g>
<!-- RadiobuttonComponent -->
<g id="node9" class="node">
<title>RadiobuttonComponent</title>
<polygon fill="#ffffb3" stroke="black" points="2032.06,-122 1881.94,-122 1881.94,-86 2032.06,-86 2032.06,-122"/>
<text text-anchor="middle" x="1957" y="-99.8" font-family="Times,serif" font-size="14.00">RadiobuttonComponent</text>
</g>
<!-- RadiobuttonComponent&#45;&gt;SharedModule -->
<g id="edge9" class="edge">
<title>RadiobuttonComponent&#45;&gt;SharedModule</title>
<path fill="none" stroke="black" d="M1979.66,-122.25C1979.66,-136.18 1979.66,-153 1979.66,-153 1979.66,-153 2046.43,-153 2046.43,-153"/>
<polygon fill="black" stroke="black" points="2046.43,-156.5 2056.43,-153 2046.43,-149.5 2046.43,-156.5"/>
</g>
<!-- SelectComponent -->
<g id="node10" class="node">
<title>SelectComponent</title>
<polygon fill="#ffffb3" stroke="black" points="1863.54,-122 1748.46,-122 1748.46,-86 1863.54,-86 1863.54,-122"/>
<text text-anchor="middle" x="1806" y="-99.8" font-family="Times,serif" font-size="14.00">SelectComponent</text>
</g>
<!-- SelectComponent&#45;&gt;SharedModule -->
<g id="edge10" class="edge">
<title>SelectComponent&#45;&gt;SharedModule</title>
<path fill="none" stroke="black" d="M1820.83,-122.12C1820.83,-136.78 1820.83,-155 1820.83,-155 1820.83,-155 2046.65,-155 2046.65,-155"/>
<polygon fill="black" stroke="black" points="2046.65,-158.5 2056.65,-155 2046.65,-151.5 2046.65,-158.5"/>
</g>
<!-- SlideToggleComponent -->
<g id="node11" class="node">
<title>SlideToggleComponent</title>
<polygon fill="#ffffb3" stroke="black" points="1729.77,-122 1580.23,-122 1580.23,-86 1729.77,-86 1729.77,-122"/>
<text text-anchor="middle" x="1655" y="-99.8" font-family="Times,serif" font-size="14.00">SlideToggleComponent</text>
</g>
<!-- SlideToggleComponent&#45;&gt;SharedModule -->
<g id="edge11" class="edge">
<title>SlideToggleComponent&#45;&gt;SharedModule</title>
<path fill="none" stroke="black" d="M1725.31,-122.24C1725.31,-137.57 1725.31,-157 1725.31,-157 1725.31,-157 2046.62,-157 2046.62,-157"/>
<polygon fill="black" stroke="black" points="2046.62,-160.5 2056.62,-157 2046.62,-153.5 2046.62,-160.5"/>
</g>
<!-- SliderComponent -->
<g id="node12" class="node">
<title>SliderComponent</title>
<polygon fill="#ffffb3" stroke="black" points="1562.27,-122 1447.73,-122 1447.73,-86 1562.27,-86 1562.27,-122"/>
<text text-anchor="middle" x="1505" y="-99.8" font-family="Times,serif" font-size="14.00">SliderComponent</text>
</g>
<!-- SliderComponent&#45;&gt;SharedModule -->
<g id="edge12" class="edge">
<title>SliderComponent&#45;&gt;SharedModule</title>
<path fill="none" stroke="black" d="M1505,-122.28C1505,-137.95 1505,-158 1505,-158 1505,-158 2046.56,-158 2046.56,-158"/>
<polygon fill="black" stroke="black" points="2046.56,-161.5 2056.56,-158 2046.56,-154.5 2046.56,-161.5"/>
</g>
<!-- LoadingComponent -->
<g id="node13" class="node">
<title>LoadingComponent</title>
<polygon fill="#ffffb3" stroke="black" points="1429.99,-122 1302.01,-122 1302.01,-86 1429.99,-86 1429.99,-122"/>
<text text-anchor="middle" x="1366" y="-99.8" font-family="Times,serif" font-size="14.00">LoadingComponent</text>
</g>
<!-- LoadingComponent&#45;&gt;SharedModule -->
<g id="edge13" class="edge">
<title>LoadingComponent&#45;&gt;SharedModule</title>
<path fill="none" stroke="black" d="M1366,-122.03C1366,-138.4 1366,-160 1366,-160 1366,-160 2046.59,-160 2046.59,-160"/>
<polygon fill="black" stroke="black" points="2046.59,-163.5 2056.59,-160 2046.59,-156.5 2046.59,-163.5"/>
</g>
<!-- LinkHardwareInputSelectorsFormComponent -->
<g id="node14" class="node">
<title>LinkHardwareInputSelectorsFormComponent</title>
<polygon fill="#ffffb3" stroke="black" points="1284.15,-122 1009.85,-122 1009.85,-86 1284.15,-86 1284.15,-122"/>
<text text-anchor="middle" x="1147" y="-99.8" font-family="Times,serif" font-size="14.00">LinkHardwareInputSelectorsFormComponent</text>
</g>
<!-- LinkHardwareInputSelectorsFormComponent&#45;&gt;SharedModule -->
<g id="edge14" class="edge">
<title>LinkHardwareInputSelectorsFormComponent&#45;&gt;SharedModule</title>
<path fill="none" stroke="black" d="M1279.75,-122.03C1279.75,-139.06 1279.75,-162 1279.75,-162 1279.75,-162 2046.48,-162 2046.48,-162"/>
<polygon fill="black" stroke="black" points="2046.48,-165.5 2056.48,-162 2046.48,-158.5 2046.48,-165.5"/>
</g>
<!-- MapHardwareInputSelectorsFormComponent -->
<g id="node15" class="node">
<title>MapHardwareInputSelectorsFormComponent</title>
<polygon fill="#ffffb3" stroke="black" points="991.87,-122 718.13,-122 718.13,-86 991.87,-86 991.87,-122"/>
<text text-anchor="middle" x="855" y="-99.8" font-family="Times,serif" font-size="14.00">MapHardwareInputSelectorsFormComponent</text>
</g>
<!-- MapHardwareInputSelectorsFormComponent&#45;&gt;SharedModule -->
<g id="edge15" class="edge">
<title>MapHardwareInputSelectorsFormComponent&#45;&gt;SharedModule</title>
<path fill="none" stroke="black" d="M985.89,-122.02C985.89,-139.37 985.89,-163 985.89,-163 985.89,-163 2046.79,-163 2046.79,-163"/>
<polygon fill="black" stroke="black" points="2046.79,-166.5 2056.79,-163 2046.79,-159.5 2046.79,-166.5"/>
</g>
<!-- MapHardwareOutputSelectorsFormComponent -->
<g id="node16" class="node">
<title>MapHardwareOutputSelectorsFormComponent</title>
<polygon fill="#ffffb3" stroke="black" points="700.2,-122 417.8,-122 417.8,-86 700.2,-86 700.2,-122"/>
<text text-anchor="middle" x="559" y="-99.8" font-family="Times,serif" font-size="14.00">MapHardwareOutputSelectorsFormComponent</text>
</g>
<!-- MapHardwareOutputSelectorsFormComponent&#45;&gt;SharedModule -->
<g id="edge16" class="edge">
<title>MapHardwareOutputSelectorsFormComponent&#45;&gt;SharedModule</title>
<path fill="none" stroke="black" d="M684.76,-122.3C684.76,-140.27 684.76,-165 684.76,-165 684.76,-165 2046.67,-165 2046.67,-165"/>
<polygon fill="black" stroke="black" points="2046.67,-168.5 2056.67,-165 2046.67,-161.5 2046.67,-168.5"/>
</g>
<!-- FormatDatePipe -->
<g id="node17" class="node">
<title>FormatDatePipe</title>
<polygon fill="#ffffb3" stroke="black" points="399.75,-122 292.25,-122 292.25,-86 399.75,-86 399.75,-122"/>
<text text-anchor="middle" x="346" y="-99.8" font-family="Times,serif" font-size="14.00">FormatDatePipe</text>
</g>
<!-- FormatDatePipe&#45;&gt;SharedModule -->
<g id="edge17" class="edge">
<title>FormatDatePipe&#45;&gt;SharedModule</title>
<path fill="none" stroke="black" d="M346,-122.22C346,-140.83 346,-167 346,-167 346,-167 2046.63,-167 2046.63,-167"/>
<polygon fill="black" stroke="black" points="2046.63,-170.5 2056.63,-167 2046.63,-163.5 2046.63,-170.5"/>
</g>
<!-- TruncatePipe -->
<g id="node18" class="node">
<title>TruncatePipe</title>
<polygon fill="#ffffb3" stroke="black" points="274.14,-122 183.86,-122 183.86,-86 274.14,-86 274.14,-122"/>
<text text-anchor="middle" x="229" y="-99.8" font-family="Times,serif" font-size="14.00">TruncatePipe</text>
</g>
<!-- TruncatePipe&#45;&gt;SharedModule -->
<g id="edge18" class="edge">
<title>TruncatePipe&#45;&gt;SharedModule</title>
<path fill="none" stroke="black" d="M229,-122.11C229,-141.34 229,-169 229,-169 229,-169 2046.76,-169 2046.76,-169"/>
<polygon fill="black" stroke="black" points="2046.76,-172.5 2056.76,-169 2046.76,-165.5 2046.76,-172.5"/>
</g>
<!-- ClickOutsideDirective -->
<g id="node19" class="node">
<title>ClickOutsideDirective</title>
<polygon fill="#ffffb3" stroke="black" points="165.96,-122 24.04,-122 24.04,-86 165.96,-86 165.96,-122"/>
<text text-anchor="middle" x="95" y="-99.8" font-family="Times,serif" font-size="14.00">ClickOutsideDirective</text>
</g>
<!-- ClickOutsideDirective&#45;&gt;SharedModule -->
<g id="edge19" class="edge">
<title>ClickOutsideDirective&#45;&gt;SharedModule</title>
<path fill="none" stroke="black" d="M95,-122.03C95,-141.58 95,-170 95,-170 95,-170 2046.29,-170 2046.29,-170"/>
<polygon fill="black" stroke="black" points="2046.29,-173.5 2056.29,-170 2046.29,-166.5 2046.29,-173.5"/>
</g>
<!-- AutocompleteComponent  -->
<g id="node25" class="node">
<title>AutocompleteComponent </title>
<polygon fill="#fb8072" stroke="black" points="3585.15,-252 3420.85,-252 3420.85,-216 3585.15,-216 3585.15,-252"/>
<text text-anchor="middle" x="3503" y="-229.8" font-family="Times,serif" font-size="14.00">AutocompleteComponent </text>
</g>
<!-- SharedModule&#45;&gt;AutocompleteComponent  -->
<g id="edge24" class="edge">
<title>SharedModule&#45;&gt;AutocompleteComponent </title>
<path fill="none" stroke="black" stroke-dasharray="5,2" d="M2155.37,-172C2398.75,-172 3459.3,-172 3459.3,-172 3459.3,-172 3459.3,-205.73 3459.3,-205.73"/>
<polygon fill="black" stroke="black" points="3455.8,-205.73 3459.3,-215.73 3462.8,-205.73 3455.8,-205.73"/>
</g>
<!-- ButtonComponent  -->
<g id="node26" class="node">
<title>ButtonComponent </title>
<polygon fill="#fb8072" stroke="black" points="3402.45,-252 3279.55,-252 3279.55,-216 3402.45,-216 3402.45,-252"/>
<text text-anchor="middle" x="3341" y="-229.8" font-family="Times,serif" font-size="14.00">ButtonComponent </text>
</g>
<!-- SharedModule&#45;&gt;ButtonComponent  -->
<g id="edge25" class="edge">
<title>SharedModule&#45;&gt;ButtonComponent </title>
<path fill="none" stroke="black" stroke-dasharray="5,2" d="M2155.25,-174C2382,-174 3314.51,-174 3314.51,-174 3314.51,-174 3314.51,-206 3314.51,-206"/>
<polygon fill="black" stroke="black" points="3311.01,-206 3314.51,-216 3318.01,-206 3311.01,-206"/>
</g>
<!-- CheckboxComponent  -->
<g id="node27" class="node">
<title>CheckboxComponent </title>
<polygon fill="#fb8072" stroke="black" points="3261.6,-252 3120.4,-252 3120.4,-216 3261.6,-216 3261.6,-252"/>
<text text-anchor="middle" x="3191" y="-229.8" font-family="Times,serif" font-size="14.00">CheckboxComponent </text>
</g>
<!-- SharedModule&#45;&gt;CheckboxComponent  -->
<g id="edge26" class="edge">
<title>SharedModule&#45;&gt;CheckboxComponent </title>
<path fill="none" stroke="black" stroke-dasharray="5,2" d="M2155.27,-175C2366.8,-175 3187.26,-175 3187.26,-175 3187.26,-175 3187.26,-205.98 3187.26,-205.98"/>
<polygon fill="black" stroke="black" points="3183.76,-205.98 3187.26,-215.98 3190.76,-205.98 3183.76,-205.98"/>
</g>
<!-- DateComponent  -->
<g id="node28" class="node">
<title>DateComponent </title>
<polygon fill="#fb8072" stroke="black" points="3102.76,-252 2991.24,-252 2991.24,-216 3102.76,-216 3102.76,-252"/>
<text text-anchor="middle" x="3047" y="-229.8" font-family="Times,serif" font-size="14.00">DateComponent </text>
</g>
<!-- SharedModule&#45;&gt;DateComponent  -->
<g id="edge27" class="edge">
<title>SharedModule&#45;&gt;DateComponent </title>
<path fill="none" stroke="black" stroke-dasharray="5,2" d="M2155.21,-177C2346.97,-177 3033.55,-177 3033.55,-177 3033.55,-177 3033.55,-205.96 3033.55,-205.96"/>
<polygon fill="black" stroke="black" points="3030.05,-205.96 3033.55,-215.96 3037.05,-205.96 3030.05,-205.96"/>
</g>
<!-- DynamicFieldDirective  -->
<g id="node29" class="node">
<title>DynamicFieldDirective </title>
<polygon fill="#fb8072" stroke="black" points="2973.68,-252 2822.32,-252 2822.32,-216 2973.68,-216 2973.68,-252"/>
<text text-anchor="middle" x="2898" y="-229.8" font-family="Times,serif" font-size="14.00">DynamicFieldDirective </text>
</g>
<!-- SharedModule&#45;&gt;DynamicFieldDirective  -->
<g id="edge28" class="edge">
<title>SharedModule&#45;&gt;DynamicFieldDirective </title>
<path fill="none" stroke="black" stroke-dasharray="5,2" d="M2155.31,-179C2325.81,-179 2880.11,-179 2880.11,-179 2880.11,-179 2880.11,-205.99 2880.11,-205.99"/>
<polygon fill="black" stroke="black" points="2876.61,-205.99 2880.11,-215.99 2883.61,-205.99 2876.61,-205.99"/>
</g>
<!-- DynamicFormComponent  -->
<g id="node30" class="node">
<title>DynamicFormComponent </title>
<polygon fill="#fb8072" stroke="black" points="2804.48,-252 2637.52,-252 2637.52,-216 2804.48,-216 2804.48,-252"/>
<text text-anchor="middle" x="2721" y="-229.8" font-family="Times,serif" font-size="14.00">DynamicFormComponent </text>
</g>
<!-- SharedModule&#45;&gt;DynamicFormComponent  -->
<g id="edge29" class="edge">
<title>SharedModule&#45;&gt;DynamicFormComponent </title>
<path fill="none" stroke="black" stroke-dasharray="5,2" d="M2155.44,-181C2288.97,-181 2646.92,-181 2646.92,-181 2646.92,-181 2646.92,-205.76 2646.92,-205.76"/>
<polygon fill="black" stroke="black" points="2643.42,-205.76 2646.92,-215.76 2650.42,-205.76 2643.42,-205.76"/>
</g>
<!-- HeadingComponent  -->
<g id="node31" class="node">
<title>HeadingComponent </title>
<polygon fill="#fb8072" stroke="black" points="2620.26,-252 2487.74,-252 2487.74,-216 2620.26,-216 2620.26,-252"/>
<text text-anchor="middle" x="2554" y="-229.8" font-family="Times,serif" font-size="14.00">HeadingComponent </text>
</g>
<!-- SharedModule&#45;&gt;HeadingComponent  -->
<g id="edge30" class="edge">
<title>SharedModule&#45;&gt;HeadingComponent </title>
<path fill="none" stroke="black" stroke-dasharray="5,2" d="M2155.34,-182C2260.81,-182 2498.7,-182 2498.7,-182 2498.7,-182 2498.7,-205.81 2498.7,-205.81"/>
<polygon fill="black" stroke="black" points="2495.2,-205.81 2498.7,-215.81 2502.2,-205.81 2495.2,-205.81"/>
</g>
<!-- InputComponent  -->
<g id="node32" class="node">
<title>InputComponent </title>
<polygon fill="#fb8072" stroke="black" points="2470.38,-252 2355.62,-252 2355.62,-216 2470.38,-216 2470.38,-252"/>
<text text-anchor="middle" x="2413" y="-229.8" font-family="Times,serif" font-size="14.00">InputComponent </text>
</g>
<!-- SharedModule&#45;&gt;InputComponent  -->
<g id="edge31" class="edge">
<title>SharedModule&#45;&gt;InputComponent </title>
<path fill="none" stroke="black" stroke-dasharray="5,2" d="M2155.32,-184C2242.11,-184 2413,-184 2413,-184 2413,-184 2413,-205.95 2413,-205.95"/>
<polygon fill="black" stroke="black" points="2409.5,-205.95 2413,-215.95 2416.5,-205.95 2409.5,-205.95"/>
</g>
<!-- RadiobuttonComponent  -->
<g id="node33" class="node">
<title>RadiobuttonComponent </title>
<polygon fill="#fb8072" stroke="black" points="2338.06,-252 2183.94,-252 2183.94,-216 2338.06,-216 2338.06,-252"/>
<text text-anchor="middle" x="2261" y="-229.8" font-family="Times,serif" font-size="14.00">RadiobuttonComponent </text>
</g>
<!-- SharedModule&#45;&gt;RadiobuttonComponent  -->
<g id="edge32" class="edge">
<title>SharedModule&#45;&gt;RadiobuttonComponent </title>
<path fill="none" stroke="black" stroke-dasharray="5,2" d="M2155.27,-186C2188.17,-186 2225.44,-186 2225.44,-186 2225.44,-186 2225.44,-205.85 2225.44,-205.85"/>
<polygon fill="black" stroke="black" points="2221.94,-205.85 2225.44,-215.85 2228.94,-205.85 2221.94,-205.85"/>
</g>
<!-- SelectComponent  -->
<g id="node34" class="node">
<title>SelectComponent </title>
<polygon fill="#fb8072" stroke="black" points="2165.54,-252 2046.46,-252 2046.46,-216 2165.54,-216 2165.54,-252"/>
<text text-anchor="middle" x="2106" y="-229.8" font-family="Times,serif" font-size="14.00">SelectComponent </text>
</g>
<!-- SharedModule&#45;&gt;SelectComponent  -->
<g id="edge33" class="edge">
<title>SharedModule&#45;&gt;SelectComponent </title>
<path fill="none" stroke="black" stroke-dasharray="5,2" d="M2106,-187.11C2106,-187.11 2106,-205.99 2106,-205.99"/>
<polygon fill="black" stroke="black" points="2102.5,-205.99 2106,-215.99 2109.5,-205.99 2102.5,-205.99"/>
</g>
<!-- SlideToggleComponent  -->
<g id="node35" class="node">
<title>SlideToggleComponent </title>
<polygon fill="#fb8072" stroke="black" points="2028.77,-252 1875.23,-252 1875.23,-216 2028.77,-216 2028.77,-252"/>
<text text-anchor="middle" x="1952" y="-229.8" font-family="Times,serif" font-size="14.00">SlideToggleComponent </text>
</g>
<!-- SharedModule&#45;&gt;SlideToggleComponent  -->
<g id="edge34" class="edge">
<title>SharedModule&#45;&gt;SlideToggleComponent </title>
<path fill="none" stroke="black" stroke-dasharray="5,2" d="M2056.7,-186C2004.85,-186 1930.69,-186 1930.69,-186 1930.69,-186 1930.69,-205.85 1930.69,-205.85"/>
<polygon fill="black" stroke="black" points="1927.19,-205.85 1930.69,-215.85 1934.19,-205.85 1927.19,-205.85"/>
</g>
<!-- SliderComponent  -->
<g id="node36" class="node">
<title>SliderComponent </title>
<polygon fill="#fb8072" stroke="black" points="1857.27,-252 1738.73,-252 1738.73,-216 1857.27,-216 1857.27,-252"/>
<text text-anchor="middle" x="1798" y="-229.8" font-family="Times,serif" font-size="14.00">SliderComponent </text>
</g>
<!-- SharedModule&#45;&gt;SliderComponent  -->
<g id="edge35" class="edge">
<title>SharedModule&#45;&gt;SliderComponent </title>
<path fill="none" stroke="black" stroke-dasharray="5,2" d="M2056.48,-184C1966.3,-184 1784.53,-184 1784.53,-184 1784.53,-184 1784.53,-205.95 1784.53,-205.95"/>
<polygon fill="black" stroke="black" points="1781.03,-205.95 1784.53,-215.95 1788.03,-205.95 1781.03,-205.95"/>
</g>
<!-- LoadingComponent  -->
<g id="node37" class="node">
<title>LoadingComponent </title>
<polygon fill="#fb8072" stroke="black" points="1720.99,-252 1589.01,-252 1589.01,-216 1720.99,-216 1720.99,-252"/>
<text text-anchor="middle" x="1655" y="-229.8" font-family="Times,serif" font-size="14.00">LoadingComponent </text>
</g>
<!-- SharedModule&#45;&gt;LoadingComponent  -->
<g id="edge36" class="edge">
<title>SharedModule&#45;&gt;LoadingComponent </title>
<path fill="none" stroke="black" stroke-dasharray="5,2" d="M2056.45,-182C1939.29,-182 1655,-182 1655,-182 1655,-182 1655,-205.81 1655,-205.81"/>
<polygon fill="black" stroke="black" points="1651.5,-205.81 1655,-215.81 1658.5,-205.81 1651.5,-205.81"/>
</g>
<!-- LinkHardwareInputSelectorsFormComponent  -->
<g id="node38" class="node">
<title>LinkHardwareInputSelectorsFormComponent </title>
<polygon fill="#fb8072" stroke="black" points="1570.65,-252 1293.35,-252 1293.35,-216 1570.65,-216 1570.65,-252"/>
<text text-anchor="middle" x="1432" y="-229.8" font-family="Times,serif" font-size="14.00">LinkHardwareInputSelectorsFormComponent </text>
</g>
<!-- SharedModule&#45;&gt;LinkHardwareInputSelectorsFormComponent  -->
<g id="edge37" class="edge">
<title>SharedModule&#45;&gt;LinkHardwareInputSelectorsFormComponent </title>
<path fill="none" stroke="black" stroke-dasharray="5,2" d="M2056.7,-181C1923.55,-181 1566.61,-181 1566.61,-181 1566.61,-181 1566.61,-205.76 1566.61,-205.76"/>
<polygon fill="black" stroke="black" points="1563.11,-205.76 1566.61,-215.76 1570.11,-205.76 1563.11,-205.76"/>
</g>
<!-- MapHardwareInputSelectorsFormComponent  -->
<g id="node39" class="node">
<title>MapHardwareInputSelectorsFormComponent </title>
<polygon fill="#fb8072" stroke="black" points="1275.37,-252 998.63,-252 998.63,-216 1275.37,-216 1275.37,-252"/>
<text text-anchor="middle" x="1137" y="-229.8" font-family="Times,serif" font-size="14.00">MapHardwareInputSelectorsFormComponent </text>
</g>
<!-- SharedModule&#45;&gt;MapHardwareInputSelectorsFormComponent  -->
<g id="edge38" class="edge">
<title>SharedModule&#45;&gt;MapHardwareInputSelectorsFormComponent </title>
<path fill="none" stroke="black" stroke-dasharray="5,2" d="M2056.57,-179C1859.79,-179 1142.68,-179 1142.68,-179 1142.68,-179 1142.68,-205.99 1142.68,-205.99"/>
<polygon fill="black" stroke="black" points="1139.18,-205.99 1142.68,-215.99 1146.18,-205.99 1139.18,-205.99"/>
</g>
<!-- MapHardwareOutputSelectorsFormComponent  -->
<g id="node40" class="node">
<title>MapHardwareOutputSelectorsFormComponent </title>
<polygon fill="#fb8072" stroke="black" points="980.2,-252 693.8,-252 693.8,-216 980.2,-216 980.2,-252"/>
<text text-anchor="middle" x="837" y="-229.8" font-family="Times,serif" font-size="14.00">MapHardwareOutputSelectorsFormComponent </text>
</g>
<!-- SharedModule&#45;&gt;MapHardwareOutputSelectorsFormComponent  -->
<g id="edge39" class="edge">
<title>SharedModule&#45;&gt;MapHardwareOutputSelectorsFormComponent </title>
<path fill="none" stroke="black" stroke-dasharray="5,2" d="M2056.73,-177C1824.37,-177 849.21,-177 849.21,-177 849.21,-177 849.21,-205.96 849.21,-205.96"/>
<polygon fill="black" stroke="black" points="845.71,-205.96 849.21,-215.96 852.71,-205.96 845.71,-205.96"/>
</g>
<!-- FormatDatePipe  -->
<g id="node41" class="node">
<title>FormatDatePipe </title>
<polygon fill="#fb8072" stroke="black" points="675.75,-252 564.25,-252 564.25,-216 675.75,-216 675.75,-252"/>
<text text-anchor="middle" x="620" y="-229.8" font-family="Times,serif" font-size="14.00">FormatDatePipe </text>
</g>
<!-- SharedModule&#45;&gt;FormatDatePipe  -->
<g id="edge40" class="edge">
<title>SharedModule&#45;&gt;FormatDatePipe </title>
<path fill="none" stroke="black" stroke-dasharray="5,2" d="M2056.56,-175C1798.71,-175 620,-175 620,-175 620,-175 620,-205.98 620,-205.98"/>
<polygon fill="black" stroke="black" points="616.5,-205.98 620,-215.98 623.5,-205.98 616.5,-205.98"/>
</g>
<!-- TruncatePipe  -->
<g id="node42" class="node">
<title>TruncatePipe </title>
<polygon fill="#fb8072" stroke="black" points="546.14,-252 451.86,-252 451.86,-216 546.14,-216 546.14,-252"/>
<text text-anchor="middle" x="499" y="-229.8" font-family="Times,serif" font-size="14.00">TruncatePipe </text>
</g>
<!-- SharedModule&#45;&gt;TruncatePipe  -->
<g id="edge41" class="edge">
<title>SharedModule&#45;&gt;TruncatePipe </title>
<path fill="none" stroke="black" stroke-dasharray="5,2" d="M2056.59,-174C1786.3,-174 499,-174 499,-174 499,-174 499,-206 499,-206"/>
<polygon fill="black" stroke="black" points="495.5,-206 499,-216 502.5,-206 495.5,-206"/>
</g>
<!-- ClickOutsideDirective  -->
<g id="node43" class="node">
<title>ClickOutsideDirective </title>
<polygon fill="#fb8072" stroke="black" points="433.96,-252 288.04,-252 288.04,-216 433.96,-216 433.96,-252"/>
<text text-anchor="middle" x="361" y="-229.8" font-family="Times,serif" font-size="14.00">ClickOutsideDirective </text>
</g>
<!-- SharedModule&#45;&gt;ClickOutsideDirective  -->
<g id="edge42" class="edge">
<title>SharedModule&#45;&gt;ClickOutsideDirective </title>
<path fill="none" stroke="black" stroke-dasharray="5,2" d="M2056.62,-172C1779.07,-172 425.69,-172 425.69,-172 425.69,-172 425.69,-205.73 425.69,-205.73"/>
<polygon fill="black" stroke="black" points="422.19,-205.73 425.69,-215.73 429.19,-205.73 422.19,-205.73"/>
</g>
<!-- CommonModule -->
<g id="node21" class="node">
<title>CommonModule</title>
<polygon fill="#8dd3c7" stroke="black" points="3789.67,-122 3786.67,-126 3765.67,-126 3762.67,-122 3678.33,-122 3678.33,-86 3789.67,-86 3789.67,-122"/>
<text text-anchor="middle" x="3734" y="-99.8" font-family="Times,serif" font-size="14.00">CommonModule</text>
</g>
<!-- CommonModule&#45;&gt;SharedModule -->
<g id="edge20" class="edge">
<title>CommonModule&#45;&gt;SharedModule</title>
<path fill="none" stroke="black" d="M3734,-122.03C3734,-141.58 3734,-170 3734,-170 3734,-170 2165.61,-170 2165.61,-170"/>
<polygon fill="black" stroke="black" points="2165.61,-166.5 2155.61,-170 2165.61,-173.5 2165.61,-166.5"/>
</g>
<!-- ReactiveFormsModule -->
<g id="node22" class="node">
<title>ReactiveFormsModule</title>
<polygon fill="#8dd3c7" stroke="black" points="3660.3,-122 3657.3,-126 3636.3,-126 3633.3,-122 3515.7,-122 3515.7,-86 3660.3,-86 3660.3,-122"/>
<text text-anchor="middle" x="3588" y="-99.8" font-family="Times,serif" font-size="14.00">ReactiveFormsModule</text>
</g>
<!-- ReactiveFormsModule&#45;&gt;SharedModule -->
<g id="edge21" class="edge">
<title>ReactiveFormsModule&#45;&gt;SharedModule</title>
<path fill="none" stroke="black" d="M3550.46,-122.11C3550.46,-141.34 3550.46,-169 3550.46,-169 3550.46,-169 2165.3,-169 2165.3,-169"/>
<polygon fill="black" stroke="black" points="2165.3,-165.5 2155.3,-169 2165.3,-172.5 2165.3,-165.5"/>
</g>
<!-- FormsModule -->
<g id="node23" class="node">
<title>FormsModule</title>
<polygon fill="#8dd3c7" stroke="black" points="3497.83,-122 3494.83,-126 3473.83,-126 3470.83,-122 3402.17,-122 3402.17,-86 3497.83,-86 3497.83,-122"/>
<text text-anchor="middle" x="3450" y="-99.8" font-family="Times,serif" font-size="14.00">FormsModule</text>
</g>
<!-- FormsModule&#45;&gt;SharedModule -->
<g id="edge22" class="edge">
<title>FormsModule&#45;&gt;SharedModule</title>
<path fill="none" stroke="black" d="M3411.7,-122.22C3411.7,-140.83 3411.7,-167 3411.7,-167 3411.7,-167 2165.59,-167 2165.59,-167"/>
<polygon fill="black" stroke="black" points="2165.59,-163.5 2155.59,-167 2165.59,-170.5 2165.59,-163.5"/>
</g>
<!-- MaterialModule -->
<g id="node24" class="node">
<title>MaterialModule</title>
<polygon fill="#8dd3c7" stroke="black" points="3384.47,-122 3381.47,-126 3360.47,-126 3357.47,-122 3277.53,-122 3277.53,-86 3384.47,-86 3384.47,-122"/>
<text text-anchor="middle" x="3331" y="-99.8" font-family="Times,serif" font-size="14.00">MaterialModule</text>
</g>
<!-- MaterialModule&#45;&gt;SharedModule -->
<g id="edge23" class="edge">
<title>MaterialModule&#45;&gt;SharedModule</title>
<path fill="none" stroke="black" d="M3349.5,-122.3C3349.5,-140.27 3349.5,-165 3349.5,-165 3349.5,-165 2165.51,-165 2165.51,-165"/>
<polygon fill="black" stroke="black" points="2165.51,-161.5 2155.51,-165 2165.51,-168.5 2165.51,-161.5"/>
</g>
</g>
</svg>
