<?xml version="1.0" encoding="UTF-8" standalone="no"?>
<!DOCTYPE svg PUBLIC "-//W3C//DTD SVG 1.1//EN"
 "http://www.w3.org/Graphics/SVG/1.1/DTD/svg11.dtd">
<!-- Generated by graphviz version 2.47.0 (20210316.0004)
 -->
<!-- Title: dependencies Pages: 1 -->
<svg width="1802pt" height="284pt"
 viewBox="0.00 0.00 1802.00 284.00" xmlns="http://www.w3.org/2000/svg" xmlns:xlink="http://www.w3.org/1999/xlink">
<g id="graph0" class="graph" transform="scale(1 1) rotate(0) translate(4 280)">
<title>dependencies</title>
<polygon fill="white" stroke="transparent" points="-4,4 -4,-280 1798,-280 1798,4 -4,4"/>
<text text-anchor="start" x="876.01" y="-42.4" font-family="Times-12" font-weight="bold" font-size="14.00">Legend</text>
<polygon fill="#ffffb3" stroke="transparent" points="663,-10 663,-30 683,-30 683,-10 663,-10"/>
<text text-anchor="start" x="686.63" y="-15.4" font-family="Times-12" font-size="14.00"> &#160;Declarations</text>
<polygon fill="#8dd3c7" stroke="transparent" points="776,-10 776,-30 796,-30 796,-10 776,-10"/>
<text text-anchor="start" x="799.73" y="-15.4" font-family="Times-12" font-size="14.00"> &#160;Module</text>
<polygon fill="#80b1d3" stroke="transparent" points="862,-10 862,-30 882,-30 882,-10 862,-10"/>
<text text-anchor="start" x="885.78" y="-15.4" font-family="Times-12" font-size="14.00"> &#160;Bootstrap</text>
<polygon fill="#fdb462" stroke="transparent" points="959,-10 959,-30 979,-30 979,-10 959,-10"/>
<text text-anchor="start" x="982.67" y="-15.4" font-family="Times-12" font-size="14.00"> &#160;Providers</text>
<polygon fill="#fb8072" stroke="transparent" points="1055,-10 1055,-30 1075,-30 1075,-10 1055,-10"/>
<text text-anchor="start" x="1078.73" y="-15.4" font-family="Times-12" font-size="14.00"> &#160;Exports</text>
<g id="clust1" class="cluster">
<title>cluster_DashboardModule</title>
<polygon fill="none" stroke="black" stroke-dasharray="1,5" points="8,-70 8,-268 1786,-268 1786,-70 8,-70"/>
</g>
<g id="clust2" class="cluster">
<title>cluster_DashboardModule_declarations</title>
<polygon fill="none" stroke="black" points="1330,-78 1330,-130 1778,-130 1778,-78 1330,-78"/>
</g>
<g id="clust7" class="cluster">
<title>cluster_DashboardModule_exports</title>
<polygon fill="none" stroke="black" points="688,-208 688,-260 1146,-260 1146,-208 688,-208"/>
</g>
<g id="clust6" class="cluster">
<title>cluster_DashboardModule_imports</title>
<polygon fill="none" stroke="black" points="364,-78 364,-130 1322,-130 1322,-78 364,-78"/>
</g>
<g id="clust9" class="cluster">
<title>cluster_DashboardModule_providers</title>
<polygon fill="none" stroke="black" points="16,-78 16,-130 356,-130 356,-78 16,-78"/>
</g>
<!-- ConsoleComponent -->
<g id="node1" class="node">
<title>ConsoleComponent</title>
<polygon fill="#ffffb3" stroke="black" points="1769.72,-122 1642.28,-122 1642.28,-86 1769.72,-86 1769.72,-122"/>
<text text-anchor="middle" x="1706" y="-99.8" font-family="Times,serif" font-size="14.00">ConsoleComponent</text>
</g>
<!-- DashboardModule -->
<g id="node4" class="node">
<title>DashboardModule</title>
<polygon fill="#8dd3c7" stroke="black" points="977.19,-187 974.19,-191 953.19,-191 950.19,-187 856.81,-187 856.81,-151 977.19,-151 977.19,-187"/>
<text text-anchor="middle" x="917" y="-164.8" font-family="Times,serif" font-size="14.00">DashboardModule</text>
</g>
<!-- ConsoleComponent&#45;&gt;DashboardModule -->
<g id="edge1" class="edge">
<title>ConsoleComponent&#45;&gt;DashboardModule</title>
<path fill="none" stroke="black" d="M1706,-122.04C1706,-143.66 1706,-177 1706,-177 1706,-177 987.28,-177 987.28,-177"/>
<polygon fill="black" stroke="black" points="987.28,-173.5 977.28,-177 987.28,-180.5 987.28,-173.5"/>
</g>
<!-- DashboardComponent -->
<g id="node2" class="node">
<title>DashboardComponent</title>
<polygon fill="#ffffb3" stroke="black" points="1623.97,-122 1482.03,-122 1482.03,-86 1623.97,-86 1623.97,-122"/>
<text text-anchor="middle" x="1553" y="-99.8" font-family="Times,serif" font-size="14.00">DashboardComponent</text>
</g>
<!-- DashboardComponent&#45;&gt;DashboardModule -->
<g id="edge2" class="edge">
<title>DashboardComponent&#45;&gt;DashboardModule</title>
<path fill="none" stroke="black" d="M1553,-122.22C1553,-142.37 1553,-172 1553,-172 1553,-172 987.12,-172 987.12,-172"/>
<polygon fill="black" stroke="black" points="987.12,-168.5 977.12,-172 987.12,-175.5 987.12,-168.5"/>
</g>
<!-- SettingsComponent -->
<g id="node3" class="node">
<title>SettingsComponent</title>
<polygon fill="#ffffb3" stroke="black" points="1464.45,-122 1337.55,-122 1337.55,-86 1464.45,-86 1464.45,-122"/>
<text text-anchor="middle" x="1401" y="-99.8" font-family="Times,serif" font-size="14.00">SettingsComponent</text>
</g>
<!-- SettingsComponent&#45;&gt;DashboardModule -->
<g id="edge3" class="edge">
<title>SettingsComponent&#45;&gt;DashboardModule</title>
<path fill="none" stroke="black" d="M1401,-122.22C1401,-140.83 1401,-167 1401,-167 1401,-167 987.32,-167 987.32,-167"/>
<polygon fill="black" stroke="black" points="987.32,-163.5 977.32,-167 987.32,-170.5 987.32,-163.5"/>
</g>
<!-- ConsoleComponent  -->
<g id="node12" class="node">
<title>ConsoleComponent </title>
<polygon fill="#fb8072" stroke="black" points="1138.22,-252 1007.78,-252 1007.78,-216 1138.22,-216 1138.22,-252"/>
<text text-anchor="middle" x="1073" y="-229.8" font-family="Times,serif" font-size="14.00">ConsoleComponent </text>
</g>
<!-- DashboardModule&#45;&gt;ConsoleComponent  -->
<g id="edge11" class="edge">
<title>DashboardModule&#45;&gt;ConsoleComponent </title>
<path fill="none" stroke="black" stroke-dasharray="5,2" d="M977.18,-182C997.27,-182 1014.65,-182 1014.65,-182 1014.65,-182 1014.65,-205.81 1014.65,-205.81"/>
<polygon fill="black" stroke="black" points="1011.15,-205.81 1014.65,-215.81 1018.15,-205.81 1011.15,-205.81"/>
</g>
<!-- DashboardComponent  -->
<g id="node13" class="node">
<title>DashboardComponent </title>
<polygon fill="#fb8072" stroke="black" points="989.97,-252 844.03,-252 844.03,-216 989.97,-216 989.97,-252"/>
<text text-anchor="middle" x="917" y="-229.8" font-family="Times,serif" font-size="14.00">DashboardComponent </text>
</g>
<!-- DashboardModule&#45;&gt;DashboardComponent  -->
<g id="edge12" class="edge">
<title>DashboardModule&#45;&gt;DashboardComponent </title>
<path fill="none" stroke="black" stroke-dasharray="5,2" d="M917,-187.11C917,-187.11 917,-205.99 917,-205.99"/>
<polygon fill="black" stroke="black" points="913.5,-205.99 917,-215.99 920.5,-205.99 913.5,-205.99"/>
</g>
<!-- SettingsComponent  -->
<g id="node14" class="node">
<title>SettingsComponent </title>
<polygon fill="#fb8072" stroke="black" points="825.95,-252 696.05,-252 696.05,-216 825.95,-216 825.95,-252"/>
<text text-anchor="middle" x="761" y="-229.8" font-family="Times,serif" font-size="14.00">SettingsComponent </text>
</g>
<!-- DashboardModule&#45;&gt;SettingsComponent  -->
<g id="edge13" class="edge">
<title>DashboardModule&#45;&gt;SettingsComponent </title>
<path fill="none" stroke="black" stroke-dasharray="5,2" d="M856.63,-182C836.25,-182 818.57,-182 818.57,-182 818.57,-182 818.57,-205.81 818.57,-205.81"/>
<polygon fill="black" stroke="black" points="815.07,-205.81 818.57,-215.81 822.07,-205.81 815.07,-205.81"/>
</g>
<!-- CommonModule -->
<g id="node5" class="node">
<title>CommonModule</title>
<polygon fill="#8dd3c7" stroke="black" points="1313.67,-122 1310.67,-126 1289.67,-126 1286.67,-122 1202.33,-122 1202.33,-86 1313.67,-86 1313.67,-122"/>
<text text-anchor="middle" x="1258" y="-99.8" font-family="Times,serif" font-size="14.00">CommonModule</text>
</g>
<!-- CommonModule&#45;&gt;DashboardModule -->
<g id="edge4" class="edge">
<title>CommonModule&#45;&gt;DashboardModule</title>
<path fill="none" stroke="black" d="M1258,-122.03C1258,-139.06 1258,-162 1258,-162 1258,-162 987.18,-162 987.18,-162"/>
<polygon fill="black" stroke="black" points="987.18,-158.5 977.18,-162 987.18,-165.5 987.18,-158.5"/>
</g>
<!-- ReactiveFormsModule -->
<g id="node6" class="node">
<title>ReactiveFormsModule</title>
<polygon fill="#8dd3c7" stroke="black" points="1184.3,-122 1181.3,-126 1160.3,-126 1157.3,-122 1039.7,-122 1039.7,-86 1184.3,-86 1184.3,-122"/>
<text text-anchor="middle" x="1112" y="-99.8" font-family="Times,serif" font-size="14.00">ReactiveFormsModule</text>
</g>
<!-- ReactiveFormsModule&#45;&gt;DashboardModule -->
<g id="edge5" class="edge">
<title>ReactiveFormsModule&#45;&gt;DashboardModule</title>
<path fill="none" stroke="black" d="M1089.1,-122.24C1089.1,-137.57 1089.1,-157 1089.1,-157 1089.1,-157 987.19,-157 987.19,-157"/>
<polygon fill="black" stroke="black" points="987.19,-153.5 977.19,-157 987.19,-160.5 987.19,-153.5"/>
</g>
<!-- FormsModule -->
<g id="node7" class="node">
<title>FormsModule</title>
<polygon fill="#8dd3c7" stroke="black" points="1021.83,-122 1018.83,-126 997.83,-126 994.83,-122 926.17,-122 926.17,-86 1021.83,-86 1021.83,-122"/>
<text text-anchor="middle" x="974" y="-99.8" font-family="Times,serif" font-size="14.00">FormsModule</text>
</g>
<!-- FormsModule&#45;&gt;DashboardModule -->
<g id="edge6" class="edge">
<title>FormsModule&#45;&gt;DashboardModule</title>
<path fill="none" stroke="black" d="M951.72,-122.11C951.72,-122.11 951.72,-140.99 951.72,-140.99"/>
<polygon fill="black" stroke="black" points="948.22,-140.99 951.72,-150.99 955.22,-140.99 948.22,-140.99"/>
</g>
<!-- RouterModule -->
<g id="node8" class="node">
<title>RouterModule</title>
<polygon fill="#8dd3c7" stroke="black" points="908.65,-122 905.65,-126 884.65,-126 881.65,-122 811.35,-122 811.35,-86 908.65,-86 908.65,-122"/>
<text text-anchor="middle" x="860" y="-99.8" font-family="Times,serif" font-size="14.00">RouterModule</text>
</g>
<!-- RouterModule&#45;&gt;DashboardModule -->
<g id="edge7" class="edge">
<title>RouterModule&#45;&gt;DashboardModule</title>
<path fill="none" stroke="black" d="M882.87,-122.11C882.87,-122.11 882.87,-140.99 882.87,-140.99"/>
<polygon fill="black" stroke="black" points="879.37,-140.99 882.87,-150.99 886.37,-140.99 879.37,-140.99"/>
</g>
<!-- MaterialModule -->
<g id="node9" class="node">
<title>MaterialModule</title>
<polygon fill="#8dd3c7" stroke="black" points="793.47,-122 790.47,-126 769.47,-126 766.47,-122 686.53,-122 686.53,-86 793.47,-86 793.47,-122"/>
<text text-anchor="middle" x="740" y="-99.8" font-family="Times,serif" font-size="14.00">MaterialModule</text>
</g>
<!-- MaterialModule&#45;&gt;DashboardModule -->
<g id="edge8" class="edge">
<title>MaterialModule&#45;&gt;DashboardModule</title>
<path fill="none" stroke="black" d="M744.76,-122.24C744.76,-137.57 744.76,-157 744.76,-157 744.76,-157 846.76,-157 846.76,-157"/>
<polygon fill="black" stroke="black" points="846.76,-160.5 856.76,-157 846.76,-153.5 846.76,-160.5"/>
</g>
<!-- SharedModule -->
<g id="node10" class="node">
<title>SharedModule</title>
<polygon fill="#8dd3c7" stroke="black" points="668.42,-122 665.42,-126 644.42,-126 641.42,-122 569.58,-122 569.58,-86 668.42,-86 668.42,-122"/>
<text text-anchor="middle" x="619" y="-99.8" font-family="Times,serif" font-size="14.00">SharedModule</text>
</g>
<!-- SharedModule&#45;&gt;DashboardModule -->
<g id="edge9" class="edge">
<title>SharedModule&#45;&gt;DashboardModule</title>
<path fill="none" stroke="black" d="M619,-122.03C619,-139.06 619,-162 619,-162 619,-162 846.7,-162 846.7,-162"/>
<polygon fill="black" stroke="black" points="846.7,-165.5 856.7,-162 846.7,-158.5 846.7,-165.5"/>
</g>
<!-- CodeEditorModule.forRoot() -->
<g id="node11" class="node">
<title>CodeEditorModule.forRoot()</title>
<polygon fill="#8dd3c7" stroke="black" points="552.47,-122 549.47,-126 528.47,-126 525.47,-122 371.53,-122 371.53,-86 552.47,-86 552.47,-122"/>
<text text-anchor="middle" x="462" y="-99.8" font-family="Times,serif" font-size="14.00">CodeEditorModule.forRoot()</text>
</g>
<!-- CodeEditorModule.forRoot()&#45;&gt;DashboardModule -->
<g id="edge10" class="edge">
<title>CodeEditorModule.forRoot()&#45;&gt;DashboardModule</title>
<path fill="none" stroke="black" d="M462,-122.22C462,-140.83 462,-167 462,-167 462,-167 846.58,-167 846.58,-167"/>
<polygon fill="black" stroke="black" points="846.58,-170.5 856.58,-167 846.58,-163.5 846.58,-170.5"/>
</g>
<!-- DashboardService -->
<g id="node15" class="node">
<title>DashboardService</title>
<ellipse fill="#fdb462" stroke="black" cx="266" cy="-104" rx="81.64" ry="18"/>
<text text-anchor="middle" x="266" y="-99.8" font-family="Times,serif" font-size="14.00">DashboardService</text>
</g>
<!-- DashboardService&#45;&gt;DashboardModule -->
<g id="edge14" class="edge">
<title>DashboardService&#45;&gt;DashboardModule</title>
<path fill="none" stroke="black" d="M266,-122.22C266,-142.37 266,-172 266,-172 266,-172 846.63,-172 846.63,-172"/>
<polygon fill="black" stroke="black" points="846.63,-175.5 856.63,-172 846.63,-168.5 846.63,-175.5"/>
</g>
<!-- SettingsService -->
<g id="node16" class="node">
<title>SettingsService</title>
<ellipse fill="#fdb462" stroke="black" cx="95" cy="-104" rx="71.22" ry="18"/>
<text text-anchor="middle" x="95" y="-99.8" font-family="Times,serif" font-size="14.00">SettingsService</text>
</g>
<!-- SettingsService&#45;&gt;DashboardModule -->
<g id="edge15" class="edge">
<title>SettingsService&#45;&gt;DashboardModule</title>
<path fill="none" stroke="black" d="M95,-122.04C95,-143.66 95,-177 95,-177 95,-177 846.89,-177 846.89,-177"/>
<polygon fill="black" stroke="black" points="846.89,-180.5 856.89,-177 846.89,-173.5 846.89,-180.5"/>
</g>
</g>
</svg>
