<?xml version="1.0" encoding="UTF-8" standalone="no"?>
<!DOCTYPE svg PUBLIC "-//W3C//DTD SVG 1.1//EN"
 "http://www.w3.org/Graphics/SVG/1.1/DTD/svg11.dtd">
<!-- Generated by graphviz version 2.47.0 (20210316.0004)
 -->
<!-- Title: dependencies Pages: 1 -->
<svg width="6361pt" height="284pt"
 viewBox="0.00 0.00 6361.00 284.00" xmlns="http://www.w3.org/2000/svg" xmlns:xlink="http://www.w3.org/1999/xlink">
<g id="graph0" class="graph" transform="scale(1 1) rotate(0) translate(4 280)">
<title>dependencies</title>
<polygon fill="white" stroke="transparent" points="-4,4 -4,-280 6357,-280 6357,4 -4,4"/>
<text text-anchor="start" x="3155.51" y="-42.4" font-family="Times-12" font-weight="bold" font-size="14.00">Legend</text>
<polygon fill="#ffffb3" stroke="transparent" points="2942.5,-10 2942.5,-30 2962.5,-30 2962.5,-10 2942.5,-10"/>
<text text-anchor="start" x="2966.13" y="-15.4" font-family="Times-12" font-size="14.00"> &#160;Declarations</text>
<polygon fill="#8dd3c7" stroke="transparent" points="3055.5,-10 3055.5,-30 3075.5,-30 3075.5,-10 3055.5,-10"/>
<text text-anchor="start" x="3079.23" y="-15.4" font-family="Times-12" font-size="14.00"> &#160;Module</text>
<polygon fill="#80b1d3" stroke="transparent" points="3141.5,-10 3141.5,-30 3161.5,-30 3161.5,-10 3141.5,-10"/>
<text text-anchor="start" x="3165.28" y="-15.4" font-family="Times-12" font-size="14.00"> &#160;Bootstrap</text>
<polygon fill="#fdb462" stroke="transparent" points="3238.5,-10 3238.5,-30 3258.5,-30 3258.5,-10 3238.5,-10"/>
<text text-anchor="start" x="3262.17" y="-15.4" font-family="Times-12" font-size="14.00"> &#160;Providers</text>
<polygon fill="#fb8072" stroke="transparent" points="3334.5,-10 3334.5,-30 3354.5,-30 3354.5,-10 3334.5,-10"/>
<text text-anchor="start" x="3358.23" y="-15.4" font-family="Times-12" font-size="14.00"> &#160;Exports</text>
<g id="clust1" class="cluster">
<title>cluster_HardwareModule</title>
<polygon fill="none" stroke="black" stroke-dasharray="1,5" points="8,-70 8,-268 6345,-268 6345,-70 8,-70"/>
</g>
<g id="clust2" class="cluster">
<title>cluster_HardwareModule_declarations</title>
<polygon fill="none" stroke="black" points="1671,-78 1671,-130 6337,-130 6337,-78 1671,-78"/>
</g>
<g id="clust22" class="cluster">
<title>cluster_HardwareModule_exports</title>
<polygon fill="none" stroke="black" points="302,-208 302,-260 5031,-260 5031,-208 302,-208"/>
</g>
<g id="clust21" class="cluster">
<title>cluster_HardwareModule_imports</title>
<polygon fill="none" stroke="black" points="903,-78 903,-130 1663,-130 1663,-78 903,-78"/>
</g>
<g id="clust24" class="cluster">
<title>cluster_HardwareModule_providers</title>
<polygon fill="none" stroke="black" points="16,-78 16,-130 895,-130 895,-78 16,-78"/>
</g>
<!-- AddHardwareInputTypeComponent -->
<g id="node1" class="node">
<title>AddHardwareInputTypeComponent</title>
<polygon fill="#ffffb3" stroke="black" points="6329.44,-122 6110.56,-122 6110.56,-86 6329.44,-86 6329.44,-122"/>
<text text-anchor="middle" x="6220" y="-99.8" font-family="Times,serif" font-size="14.00">AddHardwareInputTypeComponent</text>
</g>
<!-- HardwareModule -->
<g id="node19" class="node">
<title>HardwareModule</title>
<polygon fill="#8dd3c7" stroke="black" points="2908.23,-187 2905.23,-191 2884.23,-191 2881.23,-187 2793.77,-187 2793.77,-151 2908.23,-151 2908.23,-187"/>
<text text-anchor="middle" x="2851" y="-164.8" font-family="Times,serif" font-size="14.00">HardwareModule</text>
</g>
<!-- AddHardwareInputTypeComponent&#45;&gt;HardwareModule -->
<g id="edge1" class="edge">
<title>AddHardwareInputTypeComponent&#45;&gt;HardwareModule</title>
<path fill="none" stroke="black" d="M6220,-122.13C6220,-142.57 6220,-173 6220,-173 6220,-173 2918.41,-173 2918.41,-173"/>
<polygon fill="black" stroke="black" points="2918.41,-169.5 2908.41,-173 2918.41,-176.5 2918.41,-169.5"/>
</g>
<!-- AddHardwareOutputTypeComponent -->
<g id="node2" class="node">
<title>AddHardwareOutputTypeComponent</title>
<polygon fill="#ffffb3" stroke="black" points="6092.27,-122 5863.73,-122 5863.73,-86 6092.27,-86 6092.27,-122"/>
<text text-anchor="middle" x="5978" y="-99.8" font-family="Times,serif" font-size="14.00">AddHardwareOutputTypeComponent</text>
</g>
<!-- AddHardwareOutputTypeComponent&#45;&gt;HardwareModule -->
<g id="edge2" class="edge">
<title>AddHardwareOutputTypeComponent&#45;&gt;HardwareModule</title>
<path fill="none" stroke="black" d="M5978,-122.31C5978,-142.15 5978,-171 5978,-171 5978,-171 2918.28,-171 2918.28,-171"/>
<polygon fill="black" stroke="black" points="2918.28,-167.5 2908.28,-171 2918.28,-174.5 2918.28,-167.5"/>
</g>
<!-- AddHardwarePanelComponent -->
<g id="node3" class="node">
<title>AddHardwarePanelComponent</title>
<polygon fill="#ffffb3" stroke="black" points="5845.72,-122 5654.28,-122 5654.28,-86 5845.72,-86 5845.72,-122"/>
<text text-anchor="middle" x="5750" y="-99.8" font-family="Times,serif" font-size="14.00">AddHardwarePanelComponent</text>
</g>
<!-- AddHardwarePanelComponent&#45;&gt;HardwareModule -->
<g id="edge3" class="edge">
<title>AddHardwarePanelComponent&#45;&gt;HardwareModule</title>
<path fill="none" stroke="black" d="M5750,-122.11C5750,-141.34 5750,-169 5750,-169 5750,-169 2918.26,-169 2918.26,-169"/>
<polygon fill="black" stroke="black" points="2918.26,-165.5 2908.26,-169 2918.26,-172.5 2918.26,-165.5"/>
</g>
<!-- EditHardwareInputTypeComponent -->
<g id="node4" class="node">
<title>EditHardwareInputTypeComponent</title>
<polygon fill="#ffffb3" stroke="black" points="5636.16,-122 5417.84,-122 5417.84,-86 5636.16,-86 5636.16,-122"/>
<text text-anchor="middle" x="5527" y="-99.8" font-family="Times,serif" font-size="14.00">EditHardwareInputTypeComponent</text>
</g>
<!-- EditHardwareInputTypeComponent&#45;&gt;HardwareModule -->
<g id="edge4" class="edge">
<title>EditHardwareInputTypeComponent&#45;&gt;HardwareModule</title>
<path fill="none" stroke="black" d="M5527,-122.17C5527,-141.09 5527,-168 5527,-168 5527,-168 2918.44,-168 2918.44,-168"/>
<polygon fill="black" stroke="black" points="2918.44,-164.5 2908.44,-168 2918.44,-171.5 2918.44,-164.5"/>
</g>
<!-- EditHardwareOutputTypeComponent -->
<g id="node5" class="node">
<title>EditHardwareOutputTypeComponent</title>
<polygon fill="#ffffb3" stroke="black" points="5400,-122 5172,-122 5172,-86 5400,-86 5400,-122"/>
<text text-anchor="middle" x="5286" y="-99.8" font-family="Times,serif" font-size="14.00">EditHardwareOutputTypeComponent</text>
</g>
<!-- EditHardwareOutputTypeComponent&#45;&gt;HardwareModule -->
<g id="edge5" class="edge">
<title>EditHardwareOutputTypeComponent&#45;&gt;HardwareModule</title>
<path fill="none" stroke="black" d="M5286,-122.27C5286,-140.56 5286,-166 5286,-166 5286,-166 2918.49,-166 2918.49,-166"/>
<polygon fill="black" stroke="black" points="2918.49,-162.5 2908.49,-166 2918.49,-169.5 2918.49,-162.5"/>
</g>
<!-- EditHardwarePanelComponent -->
<g id="node6" class="node">
<title>EditHardwarePanelComponent</title>
<polygon fill="#ffffb3" stroke="black" points="5154.45,-122 4963.55,-122 4963.55,-86 5154.45,-86 5154.45,-122"/>
<text text-anchor="middle" x="5059" y="-99.8" font-family="Times,serif" font-size="14.00">EditHardwarePanelComponent</text>
</g>
<!-- EditHardwarePanelComponent&#45;&gt;HardwareModule -->
<g id="edge6" class="edge">
<title>EditHardwarePanelComponent&#45;&gt;HardwareModule</title>
<path fill="none" stroke="black" d="M4993.37,-122.3C4993.37,-140.27 4993.37,-165 4993.37,-165 4993.37,-165 2918.3,-165 2918.3,-165"/>
<polygon fill="black" stroke="black" points="2918.3,-161.5 2908.3,-165 2918.3,-168.5 2918.3,-161.5"/>
</g>
<!-- ManageHardwareBoardsComponent -->
<g id="node7" class="node">
<title>ManageHardwareBoardsComponent</title>
<polygon fill="#ffffb3" stroke="black" points="4945.76,-122 4724.24,-122 4724.24,-86 4945.76,-86 4945.76,-122"/>
<text text-anchor="middle" x="4835" y="-99.8" font-family="Times,serif" font-size="14.00">ManageHardwareBoardsComponent</text>
</g>
<!-- ManageHardwareBoardsComponent&#45;&gt;HardwareModule -->
<g id="edge7" class="edge">
<title>ManageHardwareBoardsComponent&#45;&gt;HardwareModule</title>
<path fill="none" stroke="black" d="M4753.63,-122.02C4753.63,-139.37 4753.63,-163 4753.63,-163 4753.63,-163 2918.46,-163 2918.46,-163"/>
<polygon fill="black" stroke="black" points="2918.46,-159.5 2908.46,-163 2918.46,-166.5 2918.46,-159.5"/>
</g>
<!-- ManageHardwareInputTypesComponent -->
<g id="node8" class="node">
<title>ManageHardwareInputTypesComponent</title>
<polygon fill="#ffffb3" stroke="black" points="4706.86,-122 4461.14,-122 4461.14,-86 4706.86,-86 4706.86,-122"/>
<text text-anchor="middle" x="4584" y="-99.8" font-family="Times,serif" font-size="14.00">ManageHardwareInputTypesComponent</text>
</g>
<!-- ManageHardwareInputTypesComponent&#45;&gt;HardwareModule -->
<g id="edge8" class="edge">
<title>ManageHardwareInputTypesComponent&#45;&gt;HardwareModule</title>
<path fill="none" stroke="black" d="M4497.46,-122.04C4497.46,-138.73 4497.46,-161 4497.46,-161 4497.46,-161 2918.63,-161 2918.63,-161"/>
<polygon fill="black" stroke="black" points="2918.63,-157.5 2908.63,-161 2918.63,-164.5 2918.63,-157.5"/>
</g>
<!-- ManageHardwareOutputTypesComponent -->
<g id="node9" class="node">
<title>ManageHardwareOutputTypesComponent</title>
<polygon fill="#ffffb3" stroke="black" points="4443.2,-122 4188.8,-122 4188.8,-86 4443.2,-86 4443.2,-122"/>
<text text-anchor="middle" x="4316" y="-99.8" font-family="Times,serif" font-size="14.00">ManageHardwareOutputTypesComponent</text>
</g>
<!-- ManageHardwareOutputTypesComponent&#45;&gt;HardwareModule -->
<g id="edge9" class="edge">
<title>ManageHardwareOutputTypesComponent&#45;&gt;HardwareModule</title>
<path fill="none" stroke="black" d="M4254.74,-122.03C4254.74,-138.4 4254.74,-160 4254.74,-160 4254.74,-160 2918.65,-160 2918.65,-160"/>
<polygon fill="black" stroke="black" points="2918.65,-156.5 2908.65,-160 2918.65,-163.5 2918.65,-156.5"/>
</g>
<!-- ManageHardwarePanelsComponent -->
<g id="node10" class="node">
<title>ManageHardwarePanelsComponent</title>
<polygon fill="#ffffb3" stroke="black" points="4171.15,-122 3952.85,-122 3952.85,-86 4171.15,-86 4171.15,-122"/>
<text text-anchor="middle" x="4062" y="-99.8" font-family="Times,serif" font-size="14.00">ManageHardwarePanelsComponent</text>
</g>
<!-- ManageHardwarePanelsComponent&#45;&gt;HardwareModule -->
<g id="edge10" class="edge">
<title>ManageHardwarePanelsComponent&#45;&gt;HardwareModule</title>
<path fill="none" stroke="black" d="M4017.21,-122.28C4017.21,-137.95 4017.21,-158 4017.21,-158 4017.21,-158 2918.43,-158 2918.43,-158"/>
<polygon fill="black" stroke="black" points="2918.43,-154.5 2908.43,-158 2918.43,-161.5 2918.43,-154.5"/>
</g>
<!-- RegisterHardwareBoardComponent -->
<g id="node11" class="node">
<title>RegisterHardwareBoardComponent</title>
<polygon fill="#ffffb3" stroke="black" points="3934.87,-122 3717.13,-122 3717.13,-86 3934.87,-86 3934.87,-122"/>
<text text-anchor="middle" x="3826" y="-99.8" font-family="Times,serif" font-size="14.00">RegisterHardwareBoardComponent</text>
</g>
<!-- RegisterHardwareBoardComponent&#45;&gt;HardwareModule -->
<g id="edge11" class="edge">
<title>RegisterHardwareBoardComponent&#45;&gt;HardwareModule</title>
<path fill="none" stroke="black" d="M3774.77,-122.19C3774.77,-137.18 3774.77,-156 3774.77,-156 3774.77,-156 2918.44,-156 2918.44,-156"/>
<polygon fill="black" stroke="black" points="2918.44,-152.5 2908.44,-156 2918.44,-159.5 2918.44,-152.5"/>
</g>
<!-- ViewHardwarePanelDetailsComponent -->
<g id="node12" class="node">
<title>ViewHardwarePanelDetailsComponent</title>
<polygon fill="#ffffb3" stroke="black" points="3699.58,-122 3462.42,-122 3462.42,-86 3699.58,-86 3699.58,-122"/>
<text text-anchor="middle" x="3581" y="-99.8" font-family="Times,serif" font-size="14.00">ViewHardwarePanelDetailsComponent</text>
</g>
<!-- ViewHardwarePanelDetailsComponent&#45;&gt;HardwareModule -->
<g id="edge12" class="edge">
<title>ViewHardwarePanelDetailsComponent&#45;&gt;HardwareModule</title>
<path fill="none" stroke="black" d="M3540.79,-122.12C3540.79,-136.78 3540.79,-155 3540.79,-155 3540.79,-155 2918.33,-155 2918.33,-155"/>
<polygon fill="black" stroke="black" points="2918.33,-151.5 2908.33,-155 2918.33,-158.5 2918.33,-151.5"/>
</g>
<!-- LinkHardwareInputSelectorsDialogComponent -->
<g id="node13" class="node">
<title>LinkHardwareInputSelectorsDialogComponent</title>
<polygon fill="#ffffb3" stroke="black" points="3443.92,-122 3162.08,-122 3162.08,-86 3443.92,-86 3443.92,-122"/>
<text text-anchor="middle" x="3303" y="-99.8" font-family="Times,serif" font-size="14.00">LinkHardwareInputSelectorsDialogComponent</text>
</g>
<!-- LinkHardwareInputSelectorsDialogComponent&#45;&gt;HardwareModule -->
<g id="edge13" class="edge">
<title>LinkHardwareInputSelectorsDialogComponent&#45;&gt;HardwareModule</title>
<path fill="none" stroke="black" d="M3269.24,-122.25C3269.24,-136.18 3269.24,-153 3269.24,-153 3269.24,-153 2918.28,-153 2918.28,-153"/>
<polygon fill="black" stroke="black" points="2918.28,-149.5 2908.28,-153 2918.28,-156.5 2918.28,-149.5"/>
</g>
<!-- MapHardwareInputSelectorsDialogComponent -->
<g id="node14" class="node">
<title>MapHardwareInputSelectorsDialogComponent</title>
<polygon fill="#ffffb3" stroke="black" points="3143.64,-122 2862.36,-122 2862.36,-86 3143.64,-86 3143.64,-122"/>
<text text-anchor="middle" x="3003" y="-99.8" font-family="Times,serif" font-size="14.00">MapHardwareInputSelectorsDialogComponent</text>
</g>
<!-- MapHardwareInputSelectorsDialogComponent&#45;&gt;HardwareModule -->
<g id="edge14" class="edge">
<title>MapHardwareInputSelectorsDialogComponent&#45;&gt;HardwareModule</title>
<path fill="none" stroke="black" d="M2885.4,-122.11C2885.4,-122.11 2885.4,-140.99 2885.4,-140.99"/>
<polygon fill="black" stroke="black" points="2881.9,-140.99 2885.4,-150.99 2888.9,-140.99 2881.9,-140.99"/>
</g>
<!-- MapHardwareOutputSelectorsDialogComponent -->
<g id="node15" class="node">
<title>MapHardwareOutputSelectorsDialogComponent</title>
<polygon fill="#ffffb3" stroke="black" points="2844.47,-122 2553.53,-122 2553.53,-86 2844.47,-86 2844.47,-122"/>
<text text-anchor="middle" x="2699" y="-99.8" font-family="Times,serif" font-size="14.00">MapHardwareOutputSelectorsDialogComponent</text>
</g>
<!-- MapHardwareOutputSelectorsDialogComponent&#45;&gt;HardwareModule -->
<g id="edge15" class="edge">
<title>MapHardwareOutputSelectorsDialogComponent&#45;&gt;HardwareModule</title>
<path fill="none" stroke="black" d="M2818.94,-122.11C2818.94,-122.11 2818.94,-140.99 2818.94,-140.99"/>
<polygon fill="black" stroke="black" points="2815.44,-140.99 2818.94,-150.99 2822.44,-140.99 2815.44,-140.99"/>
</g>
<!-- ViewHardwareInputSelectorsDialogComponent -->
<g id="node16" class="node">
<title>ViewHardwareInputSelectorsDialogComponent</title>
<polygon fill="#ffffb3" stroke="black" points="2535.8,-122 2250.2,-122 2250.2,-86 2535.8,-86 2535.8,-122"/>
<text text-anchor="middle" x="2393" y="-99.8" font-family="Times,serif" font-size="14.00">ViewHardwareInputSelectorsDialogComponent</text>
</g>
<!-- ViewHardwareInputSelectorsDialogComponent&#45;&gt;HardwareModule -->
<g id="edge16" class="edge">
<title>ViewHardwareInputSelectorsDialogComponent&#45;&gt;HardwareModule</title>
<path fill="none" stroke="black" d="M2454.23,-122.25C2454.23,-136.18 2454.23,-153 2454.23,-153 2454.23,-153 2783.73,-153 2783.73,-153"/>
<polygon fill="black" stroke="black" points="2783.73,-156.5 2793.73,-153 2783.73,-149.5 2783.73,-156.5"/>
</g>
<!-- ViewHardwareOutputSelectorsDialogComponent -->
<g id="node17" class="node">
<title>ViewHardwareOutputSelectorsDialogComponent</title>
<polygon fill="#ffffb3" stroke="black" points="2232.63,-122 1937.37,-122 1937.37,-86 2232.63,-86 2232.63,-122"/>
<text text-anchor="middle" x="2085" y="-99.8" font-family="Times,serif" font-size="14.00">ViewHardwareOutputSelectorsDialogComponent</text>
</g>
<!-- ViewHardwareOutputSelectorsDialogComponent&#45;&gt;HardwareModule -->
<g id="edge17" class="edge">
<title>ViewHardwareOutputSelectorsDialogComponent&#45;&gt;HardwareModule</title>
<path fill="none" stroke="black" d="M2173.01,-122.12C2173.01,-136.78 2173.01,-155 2173.01,-155 2173.01,-155 2783.49,-155 2783.49,-155"/>
<polygon fill="black" stroke="black" points="2783.49,-158.5 2793.49,-155 2783.49,-151.5 2783.49,-158.5"/>
</g>
<!-- DeleteHardwareInputDialogComponent -->
<g id="node18" class="node">
<title>DeleteHardwareInputDialogComponent</title>
<polygon fill="#ffffb3" stroke="black" points="1919.2,-122 1678.8,-122 1678.8,-86 1919.2,-86 1919.2,-122"/>
<text text-anchor="middle" x="1799" y="-99.8" font-family="Times,serif" font-size="14.00">DeleteHardwareInputDialogComponent</text>
</g>
<!-- DeleteHardwareInputDialogComponent&#45;&gt;HardwareModule -->
<g id="edge18" class="edge">
<title>DeleteHardwareInputDialogComponent&#45;&gt;HardwareModule</title>
<path fill="none" stroke="black" d="M1864.82,-122.19C1864.82,-137.18 1864.82,-156 1864.82,-156 1864.82,-156 2783.72,-156 2783.72,-156"/>
<polygon fill="black" stroke="black" points="2783.72,-159.5 2793.72,-156 2783.72,-152.5 2783.72,-159.5"/>
</g>
<!-- AddHardwareInputTypeComponent  -->
<g id="node26" class="node">
<title>AddHardwareInputTypeComponent </title>
<polygon fill="#fb8072" stroke="black" points="5023.44,-252 4800.56,-252 4800.56,-216 5023.44,-216 5023.44,-252"/>
<text text-anchor="middle" x="4912" y="-229.8" font-family="Times,serif" font-size="14.00">AddHardwareInputTypeComponent </text>
</g>
<!-- HardwareModule&#45;&gt;AddHardwareInputTypeComponent  -->
<g id="edge25" class="edge">
<title>HardwareModule&#45;&gt;AddHardwareInputTypeComponent </title>
<path fill="none" stroke="black" stroke-dasharray="5,2" d="M2908.26,-174C3237.35,-174 4873.2,-174 4873.2,-174 4873.2,-174 4873.2,-206 4873.2,-206"/>
<polygon fill="black" stroke="black" points="4869.71,-206 4873.2,-216 4876.71,-206 4869.71,-206"/>
</g>
<!-- AddHardwareOutputTypeComponent  -->
<g id="node27" class="node">
<title>AddHardwareOutputTypeComponent </title>
<polygon fill="#fb8072" stroke="black" points="4782.77,-252 4551.23,-252 4551.23,-216 4782.77,-216 4782.77,-252"/>
<text text-anchor="middle" x="4667" y="-229.8" font-family="Times,serif" font-size="14.00">AddHardwareOutputTypeComponent </text>
</g>
<!-- HardwareModule&#45;&gt;AddHardwareOutputTypeComponent  -->
<g id="edge26" class="edge">
<title>HardwareModule&#45;&gt;AddHardwareOutputTypeComponent </title>
<path fill="none" stroke="black" stroke-dasharray="5,2" d="M2908.39,-176C3213.23,-176 4628.9,-176 4628.9,-176 4628.9,-176 4628.9,-205.97 4628.9,-205.97"/>
<polygon fill="black" stroke="black" points="4625.4,-205.97 4628.9,-215.97 4632.4,-205.97 4625.4,-205.97"/>
</g>
<!-- AddHardwarePanelComponent  -->
<g id="node28" class="node">
<title>AddHardwarePanelComponent </title>
<polygon fill="#fb8072" stroke="black" points="4533.72,-252 4338.28,-252 4338.28,-216 4533.72,-216 4533.72,-252"/>
<text text-anchor="middle" x="4436" y="-229.8" font-family="Times,serif" font-size="14.00">AddHardwarePanelComponent </text>
</g>
<!-- HardwareModule&#45;&gt;AddHardwarePanelComponent  -->
<g id="edge27" class="edge">
<title>HardwareModule&#45;&gt;AddHardwarePanelComponent </title>
<path fill="none" stroke="black" stroke-dasharray="5,2" d="M2908.55,-178C3188.1,-178 4390.87,-178 4390.87,-178 4390.87,-178 4390.87,-205.97 4390.87,-205.97"/>
<polygon fill="black" stroke="black" points="4387.37,-205.97 4390.87,-215.97 4394.37,-205.97 4387.37,-205.97"/>
</g>
<!-- EditHardwareInputTypeComponent  -->
<g id="node29" class="node">
<title>EditHardwareInputTypeComponent </title>
<polygon fill="#fb8072" stroke="black" points="4320.66,-252 4099.34,-252 4099.34,-216 4320.66,-216 4320.66,-252"/>
<text text-anchor="middle" x="4210" y="-229.8" font-family="Times,serif" font-size="14.00">EditHardwareInputTypeComponent </text>
</g>
<!-- HardwareModule&#45;&gt;EditHardwareInputTypeComponent  -->
<g id="edge28" class="edge">
<title>HardwareModule&#45;&gt;EditHardwareInputTypeComponent </title>
<path fill="none" stroke="black" stroke-dasharray="5,2" d="M2908.25,-179C3157.44,-179 4135.12,-179 4135.12,-179 4135.12,-179 4135.12,-205.99 4135.12,-205.99"/>
<polygon fill="black" stroke="black" points="4131.62,-205.99 4135.12,-215.99 4138.62,-205.99 4131.62,-205.99"/>
</g>
<!-- EditHardwareOutputTypeComponent  -->
<g id="node30" class="node">
<title>EditHardwareOutputTypeComponent </title>
<polygon fill="#fb8072" stroke="black" points="4081.5,-252 3850.5,-252 3850.5,-216 4081.5,-216 4081.5,-252"/>
<text text-anchor="middle" x="3966" y="-229.8" font-family="Times,serif" font-size="14.00">EditHardwareOutputTypeComponent </text>
</g>
<!-- HardwareModule&#45;&gt;EditHardwareOutputTypeComponent  -->
<g id="edge29" class="edge">
<title>HardwareModule&#45;&gt;EditHardwareOutputTypeComponent </title>
<path fill="none" stroke="black" stroke-dasharray="5,2" d="M2908.48,-181C3126.84,-181 3892.59,-181 3892.59,-181 3892.59,-181 3892.59,-205.76 3892.59,-205.76"/>
<polygon fill="black" stroke="black" points="3889.09,-205.76 3892.59,-215.76 3896.09,-205.76 3889.09,-205.76"/>
</g>
<!-- EditHardwarePanelComponent  -->
<g id="node31" class="node">
<title>EditHardwarePanelComponent </title>
<polygon fill="#fb8072" stroke="black" points="3832.45,-252 3637.55,-252 3637.55,-216 3832.45,-216 3832.45,-252"/>
<text text-anchor="middle" x="3735" y="-229.8" font-family="Times,serif" font-size="14.00">EditHardwarePanelComponent </text>
</g>
<!-- HardwareModule&#45;&gt;EditHardwarePanelComponent  -->
<g id="edge30" class="edge">
<title>HardwareModule&#45;&gt;EditHardwarePanelComponent </title>
<path fill="none" stroke="black" stroke-dasharray="5,2" d="M2908.5,-183C3094.65,-183 3668.78,-183 3668.78,-183 3668.78,-183 3668.78,-205.88 3668.78,-205.88"/>
<polygon fill="black" stroke="black" points="3665.28,-205.88 3668.78,-215.88 3672.28,-205.88 3665.28,-205.88"/>
</g>
<!-- ManageHardwareBoardsComponent  -->
<g id="node32" class="node">
<title>ManageHardwareBoardsComponent </title>
<polygon fill="#fb8072" stroke="black" points="3619.26,-252 3394.74,-252 3394.74,-216 3619.26,-216 3619.26,-252"/>
<text text-anchor="middle" x="3507" y="-229.8" font-family="Times,serif" font-size="14.00">ManageHardwareBoardsComponent </text>
</g>
<!-- HardwareModule&#45;&gt;ManageHardwareBoardsComponent  -->
<g id="edge31" class="edge">
<title>HardwareModule&#45;&gt;ManageHardwareBoardsComponent </title>
<path fill="none" stroke="black" stroke-dasharray="5,2" d="M2908.35,-184C3052.65,-184 3419.29,-184 3419.29,-184 3419.29,-184 3419.29,-205.95 3419.29,-205.95"/>
<polygon fill="black" stroke="black" points="3415.79,-205.95 3419.29,-215.95 3422.79,-205.95 3415.79,-205.95"/>
</g>
<!-- ManageHardwareInputTypesComponent  -->
<g id="node33" class="node">
<title>ManageHardwareInputTypesComponent </title>
<polygon fill="#fb8072" stroke="black" points="3376.36,-252 3127.64,-252 3127.64,-216 3376.36,-216 3376.36,-252"/>
<text text-anchor="middle" x="3252" y="-229.8" font-family="Times,serif" font-size="14.00">ManageHardwareInputTypesComponent </text>
</g>
<!-- HardwareModule&#45;&gt;ManageHardwareInputTypesComponent  -->
<g id="edge32" class="edge">
<title>HardwareModule&#45;&gt;ManageHardwareInputTypesComponent </title>
<path fill="none" stroke="black" stroke-dasharray="5,2" d="M2908.24,-186C2991.34,-186 3135.57,-186 3135.57,-186 3135.57,-186 3135.57,-205.85 3135.57,-205.85"/>
<polygon fill="black" stroke="black" points="3132.07,-205.85 3135.57,-215.85 3139.07,-205.85 3132.07,-205.85"/>
</g>
<!-- ManageHardwareOutputTypesComponent  -->
<g id="node34" class="node">
<title>ManageHardwareOutputTypesComponent </title>
<polygon fill="#fb8072" stroke="black" points="3109.2,-252 2850.8,-252 2850.8,-216 3109.2,-216 3109.2,-252"/>
<text text-anchor="middle" x="2980" y="-229.8" font-family="Times,serif" font-size="14.00">ManageHardwareOutputTypesComponent </text>
</g>
<!-- HardwareModule&#45;&gt;ManageHardwareOutputTypesComponent  -->
<g id="edge33" class="edge">
<title>HardwareModule&#45;&gt;ManageHardwareOutputTypesComponent </title>
<path fill="none" stroke="black" stroke-dasharray="5,2" d="M2879.63,-187.11C2879.63,-187.11 2879.63,-205.99 2879.63,-205.99"/>
<polygon fill="black" stroke="black" points="2876.13,-205.99 2879.63,-215.99 2883.13,-205.99 2876.13,-205.99"/>
</g>
<!-- ManageHardwarePanelsComponent  -->
<g id="node35" class="node">
<title>ManageHardwarePanelsComponent </title>
<polygon fill="#fb8072" stroke="black" points="2832.65,-252 2611.35,-252 2611.35,-216 2832.65,-216 2832.65,-252"/>
<text text-anchor="middle" x="2722" y="-229.8" font-family="Times,serif" font-size="14.00">ManageHardwarePanelsComponent </text>
</g>
<!-- HardwareModule&#45;&gt;ManageHardwarePanelsComponent  -->
<g id="edge34" class="edge">
<title>HardwareModule&#45;&gt;ManageHardwarePanelsComponent </title>
<path fill="none" stroke="black" stroke-dasharray="5,2" d="M2813.23,-187.11C2813.23,-187.11 2813.23,-205.99 2813.23,-205.99"/>
<polygon fill="black" stroke="black" points="2809.73,-205.99 2813.23,-215.99 2816.73,-205.99 2809.73,-205.99"/>
</g>
<!-- RegisterHardwareBoardComponent  -->
<g id="node36" class="node">
<title>RegisterHardwareBoardComponent </title>
<polygon fill="#fb8072" stroke="black" points="2593.37,-252 2372.63,-252 2372.63,-216 2593.37,-216 2593.37,-252"/>
<text text-anchor="middle" x="2483" y="-229.8" font-family="Times,serif" font-size="14.00">RegisterHardwareBoardComponent </text>
</g>
<!-- HardwareModule&#45;&gt;RegisterHardwareBoardComponent  -->
<g id="edge35" class="edge">
<title>HardwareModule&#45;&gt;RegisterHardwareBoardComponent </title>
<path fill="none" stroke="black" stroke-dasharray="5,2" d="M2793.52,-186C2712.27,-186 2573.6,-186 2573.6,-186 2573.6,-186 2573.6,-205.85 2573.6,-205.85"/>
<polygon fill="black" stroke="black" points="2570.1,-205.85 2573.6,-215.85 2577.1,-205.85 2570.1,-205.85"/>
</g>
<!-- ViewHardwarePanelDetailsComponent  -->
<g id="node37" class="node">
<title>ViewHardwarePanelDetailsComponent </title>
<polygon fill="#fb8072" stroke="black" points="2354.58,-252 2113.42,-252 2113.42,-216 2354.58,-216 2354.58,-252"/>
<text text-anchor="middle" x="2234" y="-229.8" font-family="Times,serif" font-size="14.00">ViewHardwarePanelDetailsComponent </text>
</g>
<!-- HardwareModule&#45;&gt;ViewHardwarePanelDetailsComponent  -->
<g id="edge36" class="edge">
<title>HardwareModule&#45;&gt;ViewHardwarePanelDetailsComponent </title>
<path fill="none" stroke="black" stroke-dasharray="5,2" d="M2793.58,-184C2652.88,-184 2302.32,-184 2302.32,-184 2302.32,-184 2302.32,-205.95 2302.32,-205.95"/>
<polygon fill="black" stroke="black" points="2298.82,-205.95 2302.32,-215.95 2305.82,-205.95 2298.82,-205.95"/>
</g>
<!-- LinkHardwareInputSelectorsDialogComponent  -->
<g id="node38" class="node">
<title>LinkHardwareInputSelectorsDialogComponent </title>
<polygon fill="#fb8072" stroke="black" points="2095.92,-252 1810.08,-252 1810.08,-216 2095.92,-216 2095.92,-252"/>
<text text-anchor="middle" x="1953" y="-229.8" font-family="Times,serif" font-size="14.00">LinkHardwareInputSelectorsDialogComponent </text>
</g>
<!-- HardwareModule&#45;&gt;LinkHardwareInputSelectorsDialogComponent  -->
<g id="edge37" class="edge">
<title>HardwareModule&#45;&gt;LinkHardwareInputSelectorsDialogComponent </title>
<path fill="none" stroke="black" stroke-dasharray="5,2" d="M2793.65,-183C2605.13,-183 2016.57,-183 2016.57,-183 2016.57,-183 2016.57,-205.88 2016.57,-205.88"/>
<polygon fill="black" stroke="black" points="2013.07,-205.88 2016.57,-215.88 2020.07,-205.88 2013.07,-205.88"/>
</g>
<!-- MapHardwareInputSelectorsDialogComponent  -->
<g id="node39" class="node">
<title>MapHardwareInputSelectorsDialogComponent </title>
<polygon fill="#fb8072" stroke="black" points="1792.14,-252 1507.86,-252 1507.86,-216 1792.14,-216 1792.14,-252"/>
<text text-anchor="middle" x="1650" y="-229.8" font-family="Times,serif" font-size="14.00">MapHardwareInputSelectorsDialogComponent </text>
</g>
<!-- HardwareModule&#45;&gt;MapHardwareInputSelectorsDialogComponent  -->
<g id="edge38" class="edge">
<title>HardwareModule&#45;&gt;MapHardwareInputSelectorsDialogComponent </title>
<path fill="none" stroke="black" stroke-dasharray="5,2" d="M2793.76,-181C2565.89,-181 1735.49,-181 1735.49,-181 1735.49,-181 1735.49,-205.76 1735.49,-205.76"/>
<polygon fill="black" stroke="black" points="1731.99,-205.76 1735.49,-215.76 1738.99,-205.76 1731.99,-205.76"/>
</g>
<!-- MapHardwareOutputSelectorsDialogComponent  -->
<g id="node40" class="node">
<title>MapHardwareOutputSelectorsDialogComponent </title>
<polygon fill="#fb8072" stroke="black" points="1489.97,-252 1196.03,-252 1196.03,-216 1489.97,-216 1489.97,-252"/>
<text text-anchor="middle" x="1343" y="-229.8" font-family="Times,serif" font-size="14.00">MapHardwareOutputSelectorsDialogComponent </text>
</g>
<!-- HardwareModule&#45;&gt;MapHardwareOutputSelectorsDialogComponent  -->
<g id="edge39" class="edge">
<title>HardwareModule&#45;&gt;MapHardwareOutputSelectorsDialogComponent </title>
<path fill="none" stroke="black" stroke-dasharray="5,2" d="M2793.75,-179C2528.92,-179 1435.42,-179 1435.42,-179 1435.42,-179 1435.42,-205.99 1435.42,-205.99"/>
<polygon fill="black" stroke="black" points="1431.92,-205.99 1435.42,-215.99 1438.92,-205.99 1431.92,-205.99"/>
</g>
<!-- ViewHardwareInputSelectorsDialogComponent  -->
<g id="node41" class="node">
<title>ViewHardwareInputSelectorsDialogComponent </title>
<polygon fill="#fb8072" stroke="black" points="1177.8,-252 888.2,-252 888.2,-216 1177.8,-216 1177.8,-252"/>
<text text-anchor="middle" x="1033" y="-229.8" font-family="Times,serif" font-size="14.00">ViewHardwareInputSelectorsDialogComponent </text>
</g>
<!-- HardwareModule&#45;&gt;ViewHardwareInputSelectorsDialogComponent  -->
<g id="edge40" class="edge">
<title>HardwareModule&#45;&gt;ViewHardwareInputSelectorsDialogComponent </title>
<path fill="none" stroke="black" stroke-dasharray="5,2" d="M2793.45,-178C2497.94,-178 1164.91,-178 1164.91,-178 1164.91,-178 1164.91,-205.97 1164.91,-205.97"/>
<polygon fill="black" stroke="black" points="1161.41,-205.97 1164.91,-215.97 1168.41,-205.97 1161.41,-205.97"/>
</g>
<!-- ViewHardwareOutputSelectorsDialogComponent  -->
<g id="node42" class="node">
<title>ViewHardwareOutputSelectorsDialogComponent </title>
<polygon fill="#fb8072" stroke="black" points="870.13,-252 571.87,-252 571.87,-216 870.13,-216 870.13,-252"/>
<text text-anchor="middle" x="721" y="-229.8" font-family="Times,serif" font-size="14.00">ViewHardwareOutputSelectorsDialogComponent </text>
</g>
<!-- HardwareModule&#45;&gt;ViewHardwareOutputSelectorsDialogComponent  -->
<g id="edge41" class="edge">
<title>HardwareModule&#45;&gt;ViewHardwareOutputSelectorsDialogComponent </title>
<path fill="none" stroke="black" stroke-dasharray="5,2" d="M2793.69,-176C2459.67,-176 778.9,-176 778.9,-176 778.9,-176 778.9,-205.97 778.9,-205.97"/>
<polygon fill="black" stroke="black" points="775.4,-205.97 778.9,-215.97 782.4,-205.97 775.4,-205.97"/>
</g>
<!-- DeleteHardwareInputDialogComponent  -->
<g id="node43" class="node">
<title>DeleteHardwareInputDialogComponent </title>
<polygon fill="#fb8072" stroke="black" points="554.2,-252 309.8,-252 309.8,-216 554.2,-216 554.2,-252"/>
<text text-anchor="middle" x="432" y="-229.8" font-family="Times,serif" font-size="14.00">DeleteHardwareInputDialogComponent </text>
</g>
<!-- HardwareModule&#45;&gt;DeleteHardwareInputDialogComponent  -->
<g id="edge42" class="edge">
<title>HardwareModule&#45;&gt;DeleteHardwareInputDialogComponent </title>
<path fill="none" stroke="black" stroke-dasharray="5,2" d="M2793.72,-174C2434.75,-174 510.22,-174 510.22,-174 510.22,-174 510.22,-206 510.22,-206"/>
<polygon fill="black" stroke="black" points="506.72,-206 510.22,-216 513.72,-206 506.72,-206"/>
</g>
<!-- CommonModule -->
<g id="node20" class="node">
<title>CommonModule</title>
<polygon fill="#8dd3c7" stroke="black" points="1654.67,-122 1651.67,-126 1630.67,-126 1627.67,-122 1543.33,-122 1543.33,-86 1654.67,-86 1654.67,-122"/>
<text text-anchor="middle" x="1599" y="-99.8" font-family="Times,serif" font-size="14.00">CommonModule</text>
</g>
<!-- CommonModule&#45;&gt;HardwareModule -->
<g id="edge19" class="edge">
<title>CommonModule&#45;&gt;HardwareModule</title>
<path fill="none" stroke="black" d="M1599,-122.28C1599,-137.95 1599,-158 1599,-158 1599,-158 2783.54,-158 2783.54,-158"/>
<polygon fill="black" stroke="black" points="2783.54,-161.5 2793.54,-158 2783.54,-154.5 2783.54,-161.5"/>
</g>
<!-- ReactiveFormsModule -->
<g id="node21" class="node">
<title>ReactiveFormsModule</title>
<polygon fill="#8dd3c7" stroke="black" points="1525.3,-122 1522.3,-126 1501.3,-126 1498.3,-122 1380.7,-122 1380.7,-86 1525.3,-86 1525.3,-122"/>
<text text-anchor="middle" x="1453" y="-99.8" font-family="Times,serif" font-size="14.00">ReactiveFormsModule</text>
</g>
<!-- ReactiveFormsModule&#45;&gt;HardwareModule -->
<g id="edge20" class="edge">
<title>ReactiveFormsModule&#45;&gt;HardwareModule</title>
<path fill="none" stroke="black" d="M1516.42,-122.03C1516.42,-138.4 1516.42,-160 1516.42,-160 1516.42,-160 2783.65,-160 2783.65,-160"/>
<polygon fill="black" stroke="black" points="2783.65,-163.5 2793.65,-160 2783.65,-156.5 2783.65,-163.5"/>
</g>
<!-- FormsModule -->
<g id="node22" class="node">
<title>FormsModule</title>
<polygon fill="#8dd3c7" stroke="black" points="1362.83,-122 1359.83,-126 1338.83,-126 1335.83,-122 1267.17,-122 1267.17,-86 1362.83,-86 1362.83,-122"/>
<text text-anchor="middle" x="1315" y="-99.8" font-family="Times,serif" font-size="14.00">FormsModule</text>
</g>
<!-- FormsModule&#45;&gt;HardwareModule -->
<g id="edge21" class="edge">
<title>FormsModule&#45;&gt;HardwareModule</title>
<path fill="none" stroke="black" d="M1315,-122.04C1315,-138.73 1315,-161 1315,-161 1315,-161 2783.59,-161 2783.59,-161"/>
<polygon fill="black" stroke="black" points="2783.59,-164.5 2793.59,-161 2783.59,-157.5 2783.59,-164.5"/>
</g>
<!-- RouterModule -->
<g id="node23" class="node">
<title>RouterModule</title>
<polygon fill="#8dd3c7" stroke="black" points="1249.65,-122 1246.65,-126 1225.65,-126 1222.65,-122 1152.35,-122 1152.35,-86 1249.65,-86 1249.65,-122"/>
<text text-anchor="middle" x="1201" y="-99.8" font-family="Times,serif" font-size="14.00">RouterModule</text>
</g>
<!-- RouterModule&#45;&gt;HardwareModule -->
<g id="edge22" class="edge">
<title>RouterModule&#45;&gt;HardwareModule</title>
<path fill="none" stroke="black" d="M1222.92,-122.02C1222.92,-139.37 1222.92,-163 1222.92,-163 1222.92,-163 2783.53,-163 2783.53,-163"/>
<polygon fill="black" stroke="black" points="2783.53,-166.5 2793.53,-163 2783.53,-159.5 2783.53,-166.5"/>
</g>
<!-- MaterialModule -->
<g id="node24" class="node">
<title>MaterialModule</title>
<polygon fill="#8dd3c7" stroke="black" points="1134.47,-122 1131.47,-126 1110.47,-126 1107.47,-122 1027.53,-122 1027.53,-86 1134.47,-86 1134.47,-122"/>
<text text-anchor="middle" x="1081" y="-99.8" font-family="Times,serif" font-size="14.00">MaterialModule</text>
</g>
<!-- MaterialModule&#45;&gt;HardwareModule -->
<g id="edge23" class="edge">
<title>MaterialModule&#45;&gt;HardwareModule</title>
<path fill="none" stroke="black" d="M1081,-122.3C1081,-140.27 1081,-165 1081,-165 1081,-165 2783.62,-165 2783.62,-165"/>
<polygon fill="black" stroke="black" points="2783.62,-168.5 2793.62,-165 2783.62,-161.5 2783.62,-168.5"/>
</g>
<!-- SharedModule -->
<g id="node25" class="node">
<title>SharedModule</title>
<polygon fill="#8dd3c7" stroke="black" points="1009.42,-122 1006.42,-126 985.42,-126 982.42,-122 910.58,-122 910.58,-86 1009.42,-86 1009.42,-122"/>
<text text-anchor="middle" x="960" y="-99.8" font-family="Times,serif" font-size="14.00">SharedModule</text>
</g>
<!-- SharedModule&#45;&gt;HardwareModule -->
<g id="edge24" class="edge">
<title>SharedModule&#45;&gt;HardwareModule</title>
<path fill="none" stroke="black" d="M960,-122.27C960,-140.56 960,-166 960,-166 960,-166 2783.63,-166 2783.63,-166"/>
<polygon fill="black" stroke="black" points="2783.63,-169.5 2793.63,-166 2783.63,-162.5 2783.63,-169.5"/>
</g>
<!-- HardwarePanelService -->
<g id="node44" class="node">
<title>HardwarePanelService</title>
<ellipse fill="#fdb462" stroke="black" cx="787" cy="-104" rx="99.51" ry="18"/>
<text text-anchor="middle" x="787" y="-99.8" font-family="Times,serif" font-size="14.00">HardwarePanelService</text>
</g>
<!-- HardwarePanelService&#45;&gt;HardwareModule -->
<g id="edge43" class="edge">
<title>HardwarePanelService&#45;&gt;HardwareModule</title>
<path fill="none" stroke="black" d="M878.41,-111.34C878.41,-128.15 878.41,-168 878.41,-168 878.41,-168 2783.56,-168 2783.56,-168"/>
<polygon fill="black" stroke="black" points="2783.56,-171.5 2793.56,-168 2783.56,-164.5 2783.56,-171.5"/>
</g>
<!-- HardwareBoardService -->
<g id="node45" class="node">
<title>HardwareBoardService</title>
<ellipse fill="#fdb462" stroke="black" cx="568" cy="-104" rx="101.8" ry="18"/>
<text text-anchor="middle" x="568" y="-99.8" font-family="Times,serif" font-size="14.00">HardwareBoardService</text>
</g>
<!-- HardwareBoardService&#45;&gt;HardwareModule -->
<g id="edge44" class="edge">
<title>HardwareBoardService&#45;&gt;HardwareModule</title>
<path fill="none" stroke="black" d="M620.67,-119.4C620.67,-138.63 620.67,-169 620.67,-169 620.67,-169 2783.63,-169 2783.63,-169"/>
<polygon fill="black" stroke="black" points="2783.63,-172.5 2793.63,-169 2783.63,-165.5 2783.63,-172.5"/>
</g>
<!-- HardwareInputService -->
<g id="node46" class="node">
<title>HardwareInputService</title>
<ellipse fill="#fdb462" stroke="black" cx="350" cy="-104" rx="98.37" ry="18"/>
<text text-anchor="middle" x="350" y="-99.8" font-family="Times,serif" font-size="14.00">HardwareInputService</text>
</g>
<!-- HardwareInputService&#45;&gt;HardwareModule -->
<g id="edge45" class="edge">
<title>HardwareInputService&#45;&gt;HardwareModule</title>
<path fill="none" stroke="black" d="M379.17,-121.25C379.17,-141.11 379.17,-171 379.17,-171 379.17,-171 2783.54,-171 2783.54,-171"/>
<polygon fill="black" stroke="black" points="2783.54,-174.5 2793.54,-171 2783.54,-167.5 2783.54,-174.5"/>
</g>
<!-- HardwareOutputService -->
<g id="node47" class="node">
<title>HardwareOutputService</title>
<ellipse fill="#fdb462" stroke="black" cx="129" cy="-104" rx="104.75" ry="18"/>
<text text-anchor="middle" x="129" y="-99.8" font-family="Times,serif" font-size="14.00">HardwareOutputService</text>
</g>
<!-- HardwareOutputService&#45;&gt;HardwareModule -->
<g id="edge46" class="edge">
<title>HardwareOutputService&#45;&gt;HardwareModule</title>
<path fill="none" stroke="black" d="M129,-122.13C129,-142.57 129,-173 129,-173 129,-173 2783.52,-173 2783.52,-173"/>
<polygon fill="black" stroke="black" points="2783.52,-176.5 2793.52,-173 2783.52,-169.5 2783.52,-176.5"/>
</g>
</g>
</svg>
