<?xml version="1.0" encoding="UTF-8" standalone="no"?>
<!DOCTYPE svg PUBLIC "-//W3C//DTD SVG 1.1//EN"
 "http://www.w3.org/Graphics/SVG/1.1/DTD/svg11.dtd">
<!-- Generated by graphviz version 2.47.0 (20210316.0004)
 -->
<!-- Title: dependencies Pages: 1 -->
<svg width="1270pt" height="284pt"
 viewBox="0.00 0.00 1270.00 284.00" xmlns="http://www.w3.org/2000/svg" xmlns:xlink="http://www.w3.org/1999/xlink">
<g id="graph0" class="graph" transform="scale(1 1) rotate(0) translate(4 280)">
<title>dependencies</title>
<polygon fill="white" stroke="transparent" points="-4,4 -4,-280 1266,-280 1266,4 -4,4"/>
<text text-anchor="start" x="610.01" y="-42.4" font-family="Times-12" font-weight="bold" font-size="14.00">Legend</text>
<polygon fill="#ffffb3" stroke="transparent" points="397,-10 397,-30 417,-30 417,-10 397,-10"/>
<text text-anchor="start" x="420.63" y="-15.4" font-family="Times-12" font-size="14.00"> &#160;Declarations</text>
<polygon fill="#8dd3c7" stroke="transparent" points="510,-10 510,-30 530,-30 530,-10 510,-10"/>
<text text-anchor="start" x="533.73" y="-15.4" font-family="Times-12" font-size="14.00"> &#160;Module</text>
<polygon fill="#80b1d3" stroke="transparent" points="596,-10 596,-30 616,-30 616,-10 596,-10"/>
<text text-anchor="start" x="619.78" y="-15.4" font-family="Times-12" font-size="14.00"> &#160;Bootstrap</text>
<polygon fill="#fdb462" stroke="transparent" points="693,-10 693,-30 713,-30 713,-10 693,-10"/>
<text text-anchor="start" x="716.67" y="-15.4" font-family="Times-12" font-size="14.00"> &#160;Providers</text>
<polygon fill="#fb8072" stroke="transparent" points="789,-10 789,-30 809,-30 809,-10 789,-10"/>
<text text-anchor="start" x="812.73" y="-15.4" font-family="Times-12" font-size="14.00"> &#160;Exports</text>
<g id="clust1" class="cluster">
<title>cluster_SimulatorModule</title>
<polygon fill="none" stroke="black" stroke-dasharray="1,5" points="8,-70 8,-268 1254,-268 1254,-70 8,-70"/>
</g>
<g id="clust2" class="cluster">
<title>cluster_SimulatorModule_declarations</title>
<polygon fill="none" stroke="black" points="1010,-78 1010,-130 1246,-130 1246,-78 1010,-78"/>
</g>
<g id="clust5" class="cluster">
<title>cluster_SimulatorModule_exports</title>
<polygon fill="none" stroke="black" points="477,-208 477,-260 717,-260 717,-208 477,-208"/>
</g>
<g id="clust4" class="cluster">
<title>cluster_SimulatorModule_imports</title>
<polygon fill="none" stroke="black" points="242,-78 242,-130 1002,-130 1002,-78 242,-78"/>
</g>
<g id="clust7" class="cluster">
<title>cluster_SimulatorModule_providers</title>
<polygon fill="none" stroke="black" points="16,-78 16,-130 234,-130 234,-78 16,-78"/>
</g>
<!-- ManageSimulatorEventsComponent -->
<g id="node1" class="node">
<title>ManageSimulatorEventsComponent</title>
<polygon fill="#ffffb3" stroke="black" points="1237.74,-122 1018.26,-122 1018.26,-86 1237.74,-86 1237.74,-122"/>
<text text-anchor="middle" x="1128" y="-99.8" font-family="Times,serif" font-size="14.00">ManageSimulatorEventsComponent</text>
</g>
<!-- SimulatorModule -->
<g id="node2" class="node">
<title>SimulatorModule</title>
<polygon fill="#8dd3c7" stroke="black" points="654.27,-187 651.27,-191 630.27,-191 627.27,-187 539.73,-187 539.73,-151 654.27,-151 654.27,-187"/>
<text text-anchor="middle" x="597" y="-164.8" font-family="Times,serif" font-size="14.00">SimulatorModule</text>
</g>
<!-- ManageSimulatorEventsComponent&#45;&gt;SimulatorModule -->
<g id="edge1" class="edge">
<title>ManageSimulatorEventsComponent&#45;&gt;SimulatorModule</title>
<path fill="none" stroke="black" d="M1128,-122.29C1128,-144.21 1128,-178 1128,-178 1128,-178 664.33,-178 664.33,-178"/>
<polygon fill="black" stroke="black" points="664.33,-174.5 654.33,-178 664.33,-181.5 664.33,-174.5"/>
</g>
<!-- ManageSimulatorEventsComponent  -->
<g id="node9" class="node">
<title>ManageSimulatorEventsComponent </title>
<polygon fill="#fb8072" stroke="black" points="708.74,-252 485.26,-252 485.26,-216 708.74,-216 708.74,-252"/>
<text text-anchor="middle" x="597" y="-229.8" font-family="Times,serif" font-size="14.00">ManageSimulatorEventsComponent </text>
</g>
<!-- SimulatorModule&#45;&gt;ManageSimulatorEventsComponent  -->
<g id="edge8" class="edge">
<title>SimulatorModule&#45;&gt;ManageSimulatorEventsComponent </title>
<path fill="none" stroke="black" stroke-dasharray="5,2" d="M597,-187.11C597,-187.11 597,-205.99 597,-205.99"/>
<polygon fill="black" stroke="black" points="593.5,-205.99 597,-215.99 600.5,-205.99 593.5,-205.99"/>
</g>
<!-- CommonModule -->
<g id="node3" class="node">
<title>CommonModule</title>
<polygon fill="#8dd3c7" stroke="black" points="993.67,-122 990.67,-126 969.67,-126 966.67,-122 882.33,-122 882.33,-86 993.67,-86 993.67,-122"/>
<text text-anchor="middle" x="938" y="-99.8" font-family="Times,serif" font-size="14.00">CommonModule</text>
</g>
<!-- CommonModule&#45;&gt;SimulatorModule -->
<g id="edge2" class="edge">
<title>CommonModule&#45;&gt;SimulatorModule</title>
<path fill="none" stroke="black" d="M938,-122.11C938,-141.34 938,-169 938,-169 938,-169 664.46,-169 664.46,-169"/>
<polygon fill="black" stroke="black" points="664.46,-165.5 654.46,-169 664.46,-172.5 664.46,-165.5"/>
</g>
<!-- ReactiveFormsModule -->
<g id="node4" class="node">
<title>ReactiveFormsModule</title>
<polygon fill="#8dd3c7" stroke="black" points="864.3,-122 861.3,-126 840.3,-126 837.3,-122 719.7,-122 719.7,-86 864.3,-86 864.3,-122"/>
<text text-anchor="middle" x="792" y="-99.8" font-family="Times,serif" font-size="14.00">ReactiveFormsModule</text>
</g>
<!-- ReactiveFormsModule&#45;&gt;SimulatorModule -->
<g id="edge3" class="edge">
<title>ReactiveFormsModule&#45;&gt;SimulatorModule</title>
<path fill="none" stroke="black" d="M792,-122.03C792,-138.4 792,-160 792,-160 792,-160 664.45,-160 664.45,-160"/>
<polygon fill="black" stroke="black" points="664.45,-156.5 654.45,-160 664.45,-163.5 664.45,-156.5"/>
</g>
<!-- FormsModule -->
<g id="node5" class="node">
<title>FormsModule</title>
<polygon fill="#8dd3c7" stroke="black" points="701.83,-122 698.83,-126 677.83,-126 674.83,-122 606.17,-122 606.17,-86 701.83,-86 701.83,-122"/>
<text text-anchor="middle" x="654" y="-99.8" font-family="Times,serif" font-size="14.00">FormsModule</text>
</g>
<!-- FormsModule&#45;&gt;SimulatorModule -->
<g id="edge4" class="edge">
<title>FormsModule&#45;&gt;SimulatorModule</title>
<path fill="none" stroke="black" d="M630.36,-122.11C630.36,-122.11 630.36,-140.99 630.36,-140.99"/>
<polygon fill="black" stroke="black" points="626.86,-140.99 630.36,-150.99 633.86,-140.99 626.86,-140.99"/>
</g>
<!-- RouterModule -->
<g id="node6" class="node">
<title>RouterModule</title>
<polygon fill="#8dd3c7" stroke="black" points="588.65,-122 585.65,-126 564.65,-126 561.65,-122 491.35,-122 491.35,-86 588.65,-86 588.65,-122"/>
<text text-anchor="middle" x="540" y="-99.8" font-family="Times,serif" font-size="14.00">RouterModule</text>
</g>
<!-- RouterModule&#45;&gt;SimulatorModule -->
<g id="edge5" class="edge">
<title>RouterModule&#45;&gt;SimulatorModule</title>
<path fill="none" stroke="black" d="M564.22,-122.11C564.22,-122.11 564.22,-140.99 564.22,-140.99"/>
<polygon fill="black" stroke="black" points="560.72,-140.99 564.22,-150.99 567.72,-140.99 560.72,-140.99"/>
</g>
<!-- MaterialModule -->
<g id="node7" class="node">
<title>MaterialModule</title>
<polygon fill="#8dd3c7" stroke="black" points="473.47,-122 470.47,-126 449.47,-126 446.47,-122 366.53,-122 366.53,-86 473.47,-86 473.47,-122"/>
<text text-anchor="middle" x="420" y="-99.8" font-family="Times,serif" font-size="14.00">MaterialModule</text>
</g>
<!-- MaterialModule&#45;&gt;SimulatorModule -->
<g id="edge6" class="edge">
<title>MaterialModule&#45;&gt;SimulatorModule</title>
<path fill="none" stroke="black" d="M420,-122.03C420,-138.4 420,-160 420,-160 420,-160 529.53,-160 529.53,-160"/>
<polygon fill="black" stroke="black" points="529.53,-163.5 539.53,-160 529.53,-156.5 529.53,-163.5"/>
</g>
<!-- SharedModule -->
<g id="node8" class="node">
<title>SharedModule</title>
<polygon fill="#8dd3c7" stroke="black" points="348.42,-122 345.42,-126 324.42,-126 321.42,-122 249.58,-122 249.58,-86 348.42,-86 348.42,-122"/>
<text text-anchor="middle" x="299" y="-99.8" font-family="Times,serif" font-size="14.00">SharedModule</text>
</g>
<!-- SharedModule&#45;&gt;SimulatorModule -->
<g id="edge7" class="edge">
<title>SharedModule&#45;&gt;SimulatorModule</title>
<path fill="none" stroke="black" d="M299,-122.11C299,-141.34 299,-169 299,-169 299,-169 529.54,-169 529.54,-169"/>
<polygon fill="black" stroke="black" points="529.54,-172.5 539.54,-169 529.54,-165.5 529.54,-172.5"/>
</g>
<!-- SimulatorEventService -->
<g id="node10" class="node">
<title>SimulatorEventService</title>
<ellipse fill="#fdb462" stroke="black" cx="125" cy="-104" rx="100.72" ry="18"/>
<text text-anchor="middle" x="125" y="-99.8" font-family="Times,serif" font-size="14.00">SimulatorEventService</text>
</g>
<!-- SimulatorEventService&#45;&gt;SimulatorModule -->
<g id="edge9" class="edge">
<title>SimulatorEventService&#45;&gt;SimulatorModule</title>
<path fill="none" stroke="black" d="M125,-122.29C125,-144.21 125,-178 125,-178 125,-178 529.6,-178 529.6,-178"/>
<polygon fill="black" stroke="black" points="529.6,-181.5 539.6,-178 529.6,-174.5 529.6,-181.5"/>
</g>
</g>
</svg>
