<?xml version="1.0" encoding="UTF-8" standalone="no"?>
<!DOCTYPE svg PUBLIC "-//W3C//DTD SVG 1.1//EN"
 "http://www.w3.org/Graphics/SVG/1.1/DTD/svg11.dtd">
<!-- Generated by graphviz version 2.47.0 (20210316.0004)
 -->
<!-- Title: dependencies Pages: 1 -->
<svg width="6088pt" height="284pt"
 viewBox="0.00 0.00 6088.00 284.00" xmlns="http://www.w3.org/2000/svg" xmlns:xlink="http://www.w3.org/1999/xlink">
<g id="graph0" class="graph" transform="scale(1 1) rotate(0) translate(4 280)">
<title>dependencies</title>
<polygon fill="white" stroke="transparent" points="-4,4 -4,-280 6084,-280 6084,4 -4,4"/>
<text text-anchor="start" x="3019.01" y="-42.4" font-family="Times-12" font-weight="bold" font-size="14.00">Legend</text>
<polygon fill="#ffffb3" stroke="transparent" points="2806,-10 2806,-30 2826,-30 2826,-10 2806,-10"/>
<text text-anchor="start" x="2829.63" y="-15.4" font-family="Times-12" font-size="14.00"> &#160;Declarations</text>
<polygon fill="#8dd3c7" stroke="transparent" points="2919,-10 2919,-30 2939,-30 2939,-10 2919,-10"/>
<text text-anchor="start" x="2942.73" y="-15.4" font-family="Times-12" font-size="14.00"> &#160;Module</text>
<polygon fill="#80b1d3" stroke="transparent" points="3005,-10 3005,-30 3025,-30 3025,-10 3005,-10"/>
<text text-anchor="start" x="3028.78" y="-15.4" font-family="Times-12" font-size="14.00"> &#160;Bootstrap</text>
<polygon fill="#fdb462" stroke="transparent" points="3102,-10 3102,-30 3122,-30 3122,-10 3102,-10"/>
<text text-anchor="start" x="3125.67" y="-15.4" font-family="Times-12" font-size="14.00"> &#160;Providers</text>
<polygon fill="#fb8072" stroke="transparent" points="3198,-10 3198,-30 3218,-30 3218,-10 3198,-10"/>
<text text-anchor="start" x="3221.73" y="-15.4" font-family="Times-12" font-size="14.00"> &#160;Exports</text>
<g id="clust1" class="cluster">
<title>cluster_AppModule</title>
<polygon fill="none" stroke="black" stroke-dasharray="1,5" points="8,-70 8,-268 6072,-268 6072,-70 8,-70"/>
</g>
<g id="clust2" class="cluster">
<title>cluster_AppModule_declarations</title>
<polygon fill="none" stroke="black" points="5758,-78 5758,-130 6064,-130 6064,-78 5758,-78"/>
</g>
<g id="clust5" class="cluster">
<title>cluster_AppModule_imports</title>
<polygon fill="none" stroke="black" points="4070,-78 4070,-130 5750,-130 5750,-78 4070,-78"/>
</g>
<g id="clust7" class="cluster">
<title>cluster_AppModule_bootstrap</title>
<polygon fill="none" stroke="black" points="4065,-208 4065,-260 4189,-260 4189,-208 4065,-208"/>
</g>
<g id="clust8" class="cluster">
<title>cluster_AppModule_providers</title>
<polygon fill="none" stroke="black" points="16,-78 16,-130 4062,-130 4062,-78 16,-78"/>
</g>
<!-- AppComponent -->
<g id="node1" class="node">
<title>AppComponent</title>
<polygon fill="#ffffb3" stroke="black" points="6055.94,-122 5950.06,-122 5950.06,-86 6055.94,-86 6055.94,-122"/>
<text text-anchor="middle" x="6003" y="-99.8" font-family="Times,serif" font-size="14.00">AppComponent</text>
</g>
<!-- AppModule -->
<g id="node3" class="node">
<title>AppModule</title>
<polygon fill="#8dd3c7" stroke="black" points="4168.66,-187 4165.66,-191 4144.66,-191 4141.66,-187 4085.34,-187 4085.34,-151 4168.66,-151 4168.66,-187"/>
<text text-anchor="middle" x="4127" y="-164.8" font-family="Times,serif" font-size="14.00">AppModule</text>
</g>
<!-- AppComponent&#45;&gt;AppModule -->
<g id="edge1" class="edge">
<title>AppComponent&#45;&gt;AppModule</title>
<path fill="none" stroke="black" d="M6003,-122.38C6003,-146.28 6003,-185 6003,-185 6003,-185 4178.81,-185 4178.81,-185"/>
<polygon fill="black" stroke="black" points="4178.81,-181.5 4168.81,-185 4178.81,-188.5 4178.81,-181.5"/>
</g>
<!-- ExitAppDialogComponent -->
<g id="node2" class="node">
<title>ExitAppDialogComponent</title>
<polygon fill="#ffffb3" stroke="black" points="5932.38,-122 5765.62,-122 5765.62,-86 5932.38,-86 5932.38,-122"/>
<text text-anchor="middle" x="5849" y="-99.8" font-family="Times,serif" font-size="14.00">ExitAppDialogComponent</text>
</g>
<!-- ExitAppDialogComponent&#45;&gt;AppModule -->
<g id="edge2" class="edge">
<title>ExitAppDialogComponent&#45;&gt;AppModule</title>
<path fill="none" stroke="black" d="M5849,-122.09C5849,-145.13 5849,-182 5849,-182 5849,-182 4178.71,-182 4178.71,-182"/>
<polygon fill="black" stroke="black" points="4178.71,-178.5 4168.71,-182 4178.71,-185.5 4178.71,-178.5"/>
</g>
<!-- AppComponent  -->
<g id="node16" class="node">
<title>AppComponent </title>
<polygon fill="#80b1d3" stroke="black" points="4181.44,-252 4072.56,-252 4072.56,-216 4181.44,-216 4181.44,-252"/>
<text text-anchor="middle" x="4127" y="-229.8" font-family="Times,serif" font-size="14.00">AppComponent </text>
</g>
<!-- AppModule&#45;&gt;AppComponent  -->
<g id="edge15" class="edge">
<title>AppModule&#45;&gt;AppComponent </title>
<path fill="none" stroke="black" stroke-dasharray="1,5" d="M4127,-187.11C4127,-187.11 4127,-205.99 4127,-205.99"/>
<polygon fill="black" stroke="black" points="4123.5,-205.99 4127,-215.99 4130.5,-205.99 4123.5,-205.99"/>
</g>
<!-- BrowserModule -->
<g id="node4" class="node">
<title>BrowserModule</title>
<polygon fill="#8dd3c7" stroke="black" points="5742.47,-122 5739.47,-126 5718.47,-126 5715.47,-122 5635.53,-122 5635.53,-86 5742.47,-86 5742.47,-122"/>
<text text-anchor="middle" x="5689" y="-99.8" font-family="Times,serif" font-size="14.00">BrowserModule</text>
</g>
<!-- BrowserModule&#45;&gt;AppModule -->
<g id="edge3" class="edge">
<title>BrowserModule&#45;&gt;AppModule</title>
<path fill="none" stroke="black" d="M5689,-122.01C5689,-144.49 5689,-180 5689,-180 5689,-180 4178.78,-180 4178.78,-180"/>
<polygon fill="black" stroke="black" points="4178.78,-176.5 4168.78,-180 4178.78,-183.5 4178.78,-176.5"/>
</g>
<!-- AppRoutingModule -->
<g id="node5" class="node">
<title>AppRoutingModule</title>
<polygon fill="#8dd3c7" stroke="black" points="5617.27,-122 5614.27,-126 5593.27,-126 5590.27,-122 5488.73,-122 5488.73,-86 5617.27,-86 5617.27,-122"/>
<text text-anchor="middle" x="5553" y="-99.8" font-family="Times,serif" font-size="14.00">AppRoutingModule</text>
</g>
<!-- AppRoutingModule&#45;&gt;AppModule -->
<g id="edge4" class="edge">
<title>AppRoutingModule&#45;&gt;AppModule</title>
<path fill="none" stroke="black" d="M5553,-122.04C5553,-143.66 5553,-177 5553,-177 5553,-177 4178.91,-177 4178.91,-177"/>
<polygon fill="black" stroke="black" points="4178.91,-173.5 4168.91,-177 4178.91,-180.5 4178.91,-173.5"/>
</g>
<!-- BrowserAnimationsModule -->
<g id="node6" class="node">
<title>BrowserAnimationsModule</title>
<polygon fill="#8dd3c7" stroke="black" points="5470.3,-122 5467.3,-126 5446.3,-126 5443.3,-122 5297.7,-122 5297.7,-86 5470.3,-86 5470.3,-122"/>
<text text-anchor="middle" x="5384" y="-99.8" font-family="Times,serif" font-size="14.00">BrowserAnimationsModule</text>
</g>
<!-- BrowserAnimationsModule&#45;&gt;AppModule -->
<g id="edge5" class="edge">
<title>BrowserAnimationsModule&#45;&gt;AppModule</title>
<path fill="none" stroke="black" d="M5384,-122.28C5384,-143.32 5384,-175 5384,-175 5384,-175 4178.82,-175 4178.82,-175"/>
<polygon fill="black" stroke="black" points="4178.82,-171.5 4168.82,-175 4178.82,-178.5 4178.82,-171.5"/>
</g>
<!-- HttpClientModule -->
<g id="node7" class="node">
<title>HttpClientModule</title>
<polygon fill="#8dd3c7" stroke="black" points="5280.16,-122 5277.16,-126 5256.16,-126 5253.16,-122 5161.84,-122 5161.84,-86 5280.16,-86 5280.16,-122"/>
<text text-anchor="middle" x="5221" y="-99.8" font-family="Times,serif" font-size="14.00">HttpClientModule</text>
</g>
<!-- HttpClientModule&#45;&gt;AppModule -->
<g id="edge6" class="edge">
<title>HttpClientModule&#45;&gt;AppModule</title>
<path fill="none" stroke="black" d="M5221,-122.22C5221,-142.37 5221,-172 5221,-172 5221,-172 4178.88,-172 4178.88,-172"/>
<polygon fill="black" stroke="black" points="4178.88,-168.5 4168.88,-172 4178.88,-175.5 4178.88,-168.5"/>
</g>
<!-- MatNativeDateModule -->
<g id="node8" class="node">
<title>MatNativeDateModule</title>
<polygon fill="#8dd3c7" stroke="black" points="5143.84,-122 5140.84,-126 5119.84,-126 5116.84,-122 4998.16,-122 4998.16,-86 5143.84,-86 5143.84,-122"/>
<text text-anchor="middle" x="5071" y="-99.8" font-family="Times,serif" font-size="14.00">MatNativeDateModule</text>
</g>
<!-- MatNativeDateModule&#45;&gt;AppModule -->
<g id="edge7" class="edge">
<title>MatNativeDateModule&#45;&gt;AppModule</title>
<path fill="none" stroke="black" d="M5071,-122.11C5071,-141.34 5071,-169 5071,-169 5071,-169 4178.78,-169 4178.78,-169"/>
<polygon fill="black" stroke="black" points="4178.78,-165.5 4168.78,-169 4178.78,-172.5 4178.78,-165.5"/>
</g>
<!-- MaterialModule -->
<g id="node9" class="node">
<title>MaterialModule</title>
<polygon fill="#8dd3c7" stroke="black" points="4980.47,-122 4977.47,-126 4956.47,-126 4953.47,-122 4873.53,-122 4873.53,-86 4980.47,-86 4980.47,-122"/>
<text text-anchor="middle" x="4927" y="-99.8" font-family="Times,serif" font-size="14.00">MaterialModule</text>
</g>
<!-- MaterialModule&#45;&gt;AppModule -->
<g id="edge8" class="edge">
<title>MaterialModule&#45;&gt;AppModule</title>
<path fill="none" stroke="black" d="M4927,-122.22C4927,-140.83 4927,-167 4927,-167 4927,-167 4178.89,-167 4178.89,-167"/>
<polygon fill="black" stroke="black" points="4178.89,-163.5 4168.89,-167 4178.89,-170.5 4178.89,-163.5"/>
</g>
<!-- ReactiveFormsModule -->
<g id="node10" class="node">
<title>ReactiveFormsModule</title>
<polygon fill="#8dd3c7" stroke="black" points="4855.3,-122 4852.3,-126 4831.3,-126 4828.3,-122 4710.7,-122 4710.7,-86 4855.3,-86 4855.3,-122"/>
<text text-anchor="middle" x="4783" y="-99.8" font-family="Times,serif" font-size="14.00">ReactiveFormsModule</text>
</g>
<!-- ReactiveFormsModule&#45;&gt;AppModule -->
<g id="edge9" class="edge">
<title>ReactiveFormsModule&#45;&gt;AppModule</title>
<path fill="none" stroke="black" d="M4783,-122C4783,-139.68 4783,-164 4783,-164 4783,-164 4178.78,-164 4178.78,-164"/>
<polygon fill="black" stroke="black" points="4178.78,-160.5 4168.78,-164 4178.78,-167.5 4178.78,-160.5"/>
</g>
<!-- FormsModule -->
<g id="node11" class="node">
<title>FormsModule</title>
<polygon fill="#8dd3c7" stroke="black" points="4692.83,-122 4689.83,-126 4668.83,-126 4665.83,-122 4597.17,-122 4597.17,-86 4692.83,-86 4692.83,-122"/>
<text text-anchor="middle" x="4645" y="-99.8" font-family="Times,serif" font-size="14.00">FormsModule</text>
</g>
<!-- FormsModule&#45;&gt;AppModule -->
<g id="edge10" class="edge">
<title>FormsModule&#45;&gt;AppModule</title>
<path fill="none" stroke="black" d="M4645,-122.03C4645,-139.06 4645,-162 4645,-162 4645,-162 4178.95,-162 4178.95,-162"/>
<polygon fill="black" stroke="black" points="4178.95,-158.5 4168.95,-162 4178.95,-165.5 4178.95,-158.5"/>
</g>
<!-- HardwareModule -->
<g id="node12" class="node">
<title>HardwareModule</title>
<polygon fill="#8dd3c7" stroke="black" points="4579.23,-122 4576.23,-126 4555.23,-126 4552.23,-122 4464.77,-122 4464.77,-86 4579.23,-86 4579.23,-122"/>
<text text-anchor="middle" x="4522" y="-99.8" font-family="Times,serif" font-size="14.00">HardwareModule</text>
</g>
<!-- HardwareModule&#45;&gt;AppModule -->
<g id="edge11" class="edge">
<title>HardwareModule&#45;&gt;AppModule</title>
<path fill="none" stroke="black" d="M4522,-122.01C4522,-138.05 4522,-159 4522,-159 4522,-159 4178.9,-159 4178.9,-159"/>
<polygon fill="black" stroke="black" points="4178.9,-155.5 4168.9,-159 4178.9,-162.5 4178.9,-155.5"/>
</g>
<!-- SimulatorModule -->
<g id="node13" class="node">
<title>SimulatorModule</title>
<polygon fill="#8dd3c7" stroke="black" points="4446.27,-122 4443.27,-126 4422.27,-126 4419.27,-122 4331.73,-122 4331.73,-86 4446.27,-86 4446.27,-122"/>
<text text-anchor="middle" x="4389" y="-99.8" font-family="Times,serif" font-size="14.00">SimulatorModule</text>
</g>
<!-- SimulatorModule&#45;&gt;AppModule -->
<g id="edge12" class="edge">
<title>SimulatorModule&#45;&gt;AppModule</title>
<path fill="none" stroke="black" d="M4389,-122.24C4389,-137.57 4389,-157 4389,-157 4389,-157 4178.8,-157 4178.8,-157"/>
<polygon fill="black" stroke="black" points="4178.8,-153.5 4168.8,-157 4178.8,-160.5 4178.8,-153.5"/>
</g>
<!-- DashboardModule -->
<g id="node14" class="node">
<title>DashboardModule</title>
<polygon fill="#8dd3c7" stroke="black" points="4314.19,-122 4311.19,-126 4290.19,-126 4287.19,-122 4193.81,-122 4193.81,-86 4314.19,-86 4314.19,-122"/>
<text text-anchor="middle" x="4254" y="-99.8" font-family="Times,serif" font-size="14.00">DashboardModule</text>
</g>
<!-- DashboardModule&#45;&gt;AppModule -->
<g id="edge13" class="edge">
<title>DashboardModule&#45;&gt;AppModule</title>
<path fill="none" stroke="black" d="M4254,-122.05C4254,-136.37 4254,-154 4254,-154 4254,-154 4178.94,-154 4178.94,-154"/>
<polygon fill="black" stroke="black" points="4178.94,-150.5 4168.94,-154 4178.94,-157.5 4178.94,-150.5"/>
</g>
<!-- SharedModule -->
<g id="node15" class="node">
<title>SharedModule</title>
<polygon fill="#8dd3c7" stroke="black" points="4176.42,-122 4173.42,-126 4152.42,-126 4149.42,-122 4077.58,-122 4077.58,-86 4176.42,-86 4176.42,-122"/>
<text text-anchor="middle" x="4127" y="-99.8" font-family="Times,serif" font-size="14.00">SharedModule</text>
</g>
<!-- SharedModule&#45;&gt;AppModule -->
<g id="edge14" class="edge">
<title>SharedModule&#45;&gt;AppModule</title>
<path fill="none" stroke="black" d="M4127,-122.11C4127,-122.11 4127,-140.99 4127,-140.99"/>
<polygon fill="black" stroke="black" points="4123.5,-140.99 4127,-150.99 4130.5,-140.99 4123.5,-140.99"/>
</g>
<!-- DataService -->
<g id="node17" class="node">
<title>DataService</title>
<ellipse fill="#fdb462" stroke="black" cx="3996" cy="-104" rx="58.44" ry="18"/>
<text text-anchor="middle" x="3996" y="-99.8" font-family="Times,serif" font-size="14.00">DataService</text>
</g>
<!-- DataService&#45;&gt;AppModule -->
<g id="edge16" class="edge">
<title>DataService&#45;&gt;AppModule</title>
<path fill="none" stroke="black" d="M3996,-122.05C3996,-136.37 3996,-154 3996,-154 3996,-154 4075.19,-154 4075.19,-154"/>
<polygon fill="black" stroke="black" points="4075.19,-157.5 4085.19,-154 4075.19,-150.5 4075.19,-157.5"/>
</g>
<!-- CoreHelper -->
<g id="node18" class="node">
<title>CoreHelper</title>
<ellipse fill="#fdb462" stroke="black" cx="3864" cy="-104" rx="56.16" ry="18"/>
<text text-anchor="middle" x="3864" y="-99.8" font-family="Times,serif" font-size="14.00">CoreHelper</text>
</g>
<!-- CoreHelper&#45;&gt;AppModule -->
<g id="edge17" class="edge">
<title>CoreHelper&#45;&gt;AppModule</title>
<path fill="none" stroke="black" d="M3864,-122.24C3864,-137.57 3864,-157 3864,-157 3864,-157 4075.33,-157 4075.33,-157"/>
<polygon fill="black" stroke="black" points="4075.33,-160.5 4085.33,-157 4075.33,-153.5 4075.33,-160.5"/>
</g>
<!-- ConfigurationService -->
<g id="node19" class="node">
<title>ConfigurationService</title>
<ellipse fill="#fdb462" stroke="black" cx="3696" cy="-104" rx="94.34" ry="18"/>
<text text-anchor="middle" x="3696" y="-99.8" font-family="Times,serif" font-size="14.00">ConfigurationService</text>
</g>
<!-- ConfigurationService&#45;&gt;AppModule -->
<g id="edge18" class="edge">
<title>ConfigurationService&#45;&gt;AppModule</title>
<path fill="none" stroke="black" d="M3696,-122.01C3696,-138.05 3696,-159 3696,-159 3696,-159 4075.28,-159 4075.28,-159"/>
<polygon fill="black" stroke="black" points="4075.28,-162.5 4085.28,-159 4075.28,-155.5 4075.28,-162.5"/>
</g>
<!-- RealTimeService -->
<g id="node20" class="node">
<title>RealTimeService</title>
<ellipse fill="#fdb462" stroke="black" cx="3506" cy="-104" rx="78.14" ry="18"/>
<text text-anchor="middle" x="3506" y="-99.8" font-family="Times,serif" font-size="14.00">RealTimeService</text>
</g>
<!-- RealTimeService&#45;&gt;AppModule -->
<g id="edge19" class="edge">
<title>RealTimeService&#45;&gt;AppModule</title>
<path fill="none" stroke="black" d="M3506,-122.03C3506,-139.06 3506,-162 3506,-162 3506,-162 4075.29,-162 4075.29,-162"/>
<polygon fill="black" stroke="black" points="4075.29,-165.5 4085.29,-162 4075.29,-158.5 4075.29,-165.5"/>
</g>
<!-- LoadingService -->
<g id="node21" class="node">
<title>LoadingService</title>
<ellipse fill="#fdb462" stroke="black" cx="3338" cy="-104" rx="72.35" ry="18"/>
<text text-anchor="middle" x="3338" y="-99.8" font-family="Times,serif" font-size="14.00">LoadingService</text>
</g>
<!-- LoadingService&#45;&gt;AppModule -->
<g id="edge20" class="edge">
<title>LoadingService&#45;&gt;AppModule</title>
<path fill="none" stroke="black" d="M3338,-122C3338,-139.68 3338,-164 3338,-164 3338,-164 4075.14,-164 4075.14,-164"/>
<polygon fill="black" stroke="black" points="4075.14,-167.5 4085.14,-164 4075.14,-160.5 4075.14,-167.5"/>
</g>
<!-- PerformanceService -->
<g id="node22" class="node">
<title>PerformanceService</title>
<ellipse fill="#fdb462" stroke="black" cx="3159" cy="-104" rx="89.14" ry="18"/>
<text text-anchor="middle" x="3159" y="-99.8" font-family="Times,serif" font-size="14.00">PerformanceService</text>
</g>
<!-- PerformanceService&#45;&gt;AppModule -->
<g id="edge21" class="edge">
<title>PerformanceService&#45;&gt;AppModule</title>
<path fill="none" stroke="black" d="M3159,-122.22C3159,-140.83 3159,-167 3159,-167 3159,-167 4075.1,-167 4075.1,-167"/>
<polygon fill="black" stroke="black" points="4075.1,-170.5 4085.1,-167 4075.1,-163.5 4075.1,-170.5"/>
</g>
<!-- AuthService -->
<g id="node23" class="node">
<title>AuthService</title>
<ellipse fill="#fdb462" stroke="black" cx="2992" cy="-104" rx="59.11" ry="18"/>
<text text-anchor="middle" x="2992" y="-99.8" font-family="Times,serif" font-size="14.00">AuthService</text>
</g>
<!-- AuthService&#45;&gt;AppModule -->
<g id="edge22" class="edge">
<title>AuthService&#45;&gt;AppModule</title>
<path fill="none" stroke="black" d="M2992,-122.11C2992,-141.34 2992,-169 2992,-169 2992,-169 4075.26,-169 4075.26,-169"/>
<polygon fill="black" stroke="black" points="4075.26,-172.5 4085.26,-169 4075.26,-165.5 4075.26,-172.5"/>
</g>
<!-- ThemeService -->
<g id="node24" class="node">
<title>ThemeService</title>
<ellipse fill="#fdb462" stroke="black" cx="2848" cy="-104" rx="66.61" ry="18"/>
<text text-anchor="middle" x="2848" y="-99.8" font-family="Times,serif" font-size="14.00">ThemeService</text>
</g>
<!-- ThemeService&#45;&gt;AppModule -->
<g id="edge23" class="edge">
<title>ThemeService&#45;&gt;AppModule</title>
<path fill="none" stroke="black" d="M2848,-122.22C2848,-142.37 2848,-172 2848,-172 2848,-172 4075.17,-172 4075.17,-172"/>
<polygon fill="black" stroke="black" points="4075.17,-175.5 4085.17,-172 4075.17,-168.5 4075.17,-175.5"/>
</g>
<!-- FormValidationService -->
<g id="node25" class="node">
<title>FormValidationService</title>
<ellipse fill="#fdb462" stroke="black" cx="2662" cy="-104" rx="101.86" ry="18"/>
<text text-anchor="middle" x="2662" y="-99.8" font-family="Times,serif" font-size="14.00">FormValidationService</text>
</g>
<!-- FormValidationService&#45;&gt;AppModule -->
<g id="edge24" class="edge">
<title>FormValidationService&#45;&gt;AppModule</title>
<path fill="none" stroke="black" d="M2662,-122.28C2662,-143.32 2662,-175 2662,-175 2662,-175 4075.13,-175 4075.13,-175"/>
<polygon fill="black" stroke="black" points="4075.13,-178.5 4085.13,-175 4075.13,-171.5 4075.13,-178.5"/>
</g>
<!-- { provide: APP_INITIALIZER, useFactory: initializeApp, deps: [ConfigurationService], multi: &#160;} -->
<g id="node26" class="node">
<title>{ provide: APP_INITIALIZER, useFactory: initializeApp, deps: [ConfigurationService], multi: &#160;}</title>
<ellipse fill="#fdb462" stroke="black" cx="2153" cy="-104" rx="389.15" ry="18"/>
<text text-anchor="middle" x="2153" y="-99.8" font-family="Times,serif" font-size="14.00">{ provide: APP_INITIALIZER, useFactory: initializeApp, deps: [ConfigurationService], multi: &#160;}</text>
</g>
<!-- { provide: APP_INITIALIZER, useFactory: initializeApp, deps: [ConfigurationService], multi: &#160;}&#45;&gt;AppModule -->
<g id="edge25" class="edge">
<title>{ provide: APP_INITIALIZER, useFactory: initializeApp, deps: [ConfigurationService], multi: &#160;}&#45;&gt;AppModule</title>
<path fill="none" stroke="black" d="M2153,-122.04C2153,-143.66 2153,-177 2153,-177 2153,-177 4075.31,-177 4075.31,-177"/>
<polygon fill="black" stroke="black" points="4075.31,-180.5 4085.31,-177 4075.31,-173.5 4075.31,-180.5"/>
</g>
<!-- { provide: ErrorHandler, useClass: GlobalErrorHandler } -->
<g id="node27" class="node">
<title>{ provide: ErrorHandler, useClass: GlobalErrorHandler }</title>
<ellipse fill="#fdb462" stroke="black" cx="1513" cy="-104" rx="232.85" ry="18"/>
<text text-anchor="middle" x="1513" y="-99.8" font-family="Times,serif" font-size="14.00">{ provide: ErrorHandler, useClass: GlobalErrorHandler }</text>
</g>
<!-- { provide: ErrorHandler, useClass: GlobalErrorHandler }&#45;&gt;AppModule -->
<g id="edge26" class="edge">
<title>{ provide: ErrorHandler, useClass: GlobalErrorHandler }&#45;&gt;AppModule</title>
<path fill="none" stroke="black" d="M1513,-122.01C1513,-144.49 1513,-180 1513,-180 1513,-180 4075.15,-180 4075.15,-180"/>
<polygon fill="black" stroke="black" points="4075.15,-183.5 4085.15,-180 4075.15,-176.5 4075.15,-183.5"/>
</g>
<!-- { provide: HTTP_INTERCEPTORS, useClass: HttpRequestInterceptor, multi: &#160;} -->
<g id="node28" class="node">
<title>{ provide: HTTP_INTERCEPTORS, useClass: HttpRequestInterceptor, multi: &#160;}</title>
<ellipse fill="#fdb462" stroke="black" cx="938" cy="-104" rx="324.36" ry="18"/>
<text text-anchor="middle" x="938" y="-99.8" font-family="Times,serif" font-size="14.00">{ provide: HTTP_INTERCEPTORS, useClass: HttpRequestInterceptor, multi: &#160;}</text>
</g>
<!-- { provide: HTTP_INTERCEPTORS, useClass: HttpRequestInterceptor, multi: &#160;}&#45;&gt;AppModule -->
<g id="edge27" class="edge">
<title>{ provide: HTTP_INTERCEPTORS, useClass: HttpRequestInterceptor, multi: &#160;}&#45;&gt;AppModule</title>
<path fill="none" stroke="black" d="M938,-122.09C938,-145.13 938,-182 938,-182 938,-182 4075.22,-182 4075.22,-182"/>
<polygon fill="black" stroke="black" points="4075.22,-185.5 4085.22,-182 4075.22,-178.5 4075.22,-185.5"/>
</g>
<!-- { provide: MAT_FORM_FIELD_DEFAULT_OPTIONS, useValue: &#160;} -->
<g id="node29" class="node">
<title>{ provide: MAT_FORM_FIELD_DEFAULT_OPTIONS, useValue: &#160;}</title>
<ellipse fill="#fdb462" stroke="black" cx="310" cy="-104" rx="285.63" ry="18"/>
<text text-anchor="middle" x="310" y="-99.8" font-family="Times,serif" font-size="14.00">{ provide: MAT_FORM_FIELD_DEFAULT_OPTIONS, useValue: &#160;}</text>
</g>
<!-- { provide: MAT_FORM_FIELD_DEFAULT_OPTIONS, useValue: &#160;}&#45;&gt;AppModule -->
<g id="edge28" class="edge">
<title>{ provide: MAT_FORM_FIELD_DEFAULT_OPTIONS, useValue: &#160;}&#45;&gt;AppModule</title>
<path fill="none" stroke="black" d="M310,-122.38C310,-146.28 310,-185 310,-185 310,-185 4075.11,-185 4075.11,-185"/>
<polygon fill="black" stroke="black" points="4075.11,-188.5 4085.11,-185 4075.11,-181.5 4075.11,-188.5"/>
</g>
</g>
</svg>
